<svg width="223" height="164" fill="none" xmlns="http://www.w3.org/2000/svg"><path d="M58.103 163.844s58.827-24.75 119.001 0h-119z" fill="#fff" fill-opacity=".29"/><path d="M211.127 27.241c5.1 14.671-2.659 30.7-17.33 35.8-14.67 5.1-30.698-2.659-35.799-17.33-5.1-14.67 2.659-30.698 17.329-35.799 14.671-5.1 30.699 2.659 35.8 17.33z" fill="#fff" stroke="#2C3489"/><path d="M202.02 14.1c10.983 10.983 10.983 28.79 0 39.773-10.982 10.983-28.789 10.983-39.772 0-10.983-10.983-10.983-28.79 0-39.773 10.983-10.983 28.79-10.983 39.772 0z" fill="#fff" stroke="#2C3489"/><path d="M201.961 26.557c3.878 10.783-1.938 22.768-13.024 26.755-11.086 3.987-23.203-1.55-27.081-12.332-3.877-10.782 1.939-22.768 13.025-26.754 11.085-3.987 23.202 1.55 27.08 12.331z" fill="#fff" stroke="#2C3489"/><path d="M174.576 13.35a22.297 22.297 0 0 0-10.844 8.377 21.3 21.3 0 0 1 24.472-8.847 22.3 22.3 0 0 0-13.628.47z" fill="#E0E0E0" stroke="#2C3489"/><path d="M168.694-34.824c5.1 14.67-2.658 30.698-17.329 35.799-14.671 5.1-30.699-2.658-35.799-17.33-5.101-14.67 2.658-30.698 17.329-35.799 14.671-5.1 30.699 2.659 35.799 17.33z" fill="#fff" stroke="#2C3489"/><path d="M159.588-47.965c10.983 10.983 10.983 28.79 0 39.772-10.983 10.983-28.79 10.983-39.773 0-10.983-10.983-10.983-28.79 0-39.772 10.983-10.983 28.79-10.983 39.773 0zM140.007 33.282c16.837 16.837 16.837 44.135 0 60.972-16.837 16.838-44.136 16.838-60.973 0-16.837-16.837-16.837-44.135 0-60.972 16.837-16.837 44.136-16.837 60.973 0z" fill="#fff" stroke="#2C3489"/><path opacity=".4" d="M140.007 33.282c16.837 16.837 16.837 44.135 0 60.972-16.837 16.838-44.136 16.838-60.973 0-16.837-16.837-16.837-44.135 0-60.972 16.837-16.837 44.136-16.837 60.973 0z" fill="#fff" stroke="#2C3489"/><path d="M137.353 28.697c16.837 16.837 16.837 44.135 0 60.973-16.837 16.837-44.136 16.837-60.973 0-16.837-16.838-16.837-44.136 0-60.973 16.837-16.837 44.136-16.837 60.973 0z" fill="#fff" stroke="#2C3489"/><path opacity=".2" d="M139.205 55.588c1.703 17.527-11.489 33.173-29.494 34.922-18.005 1.75-33.962-11.064-35.665-28.59-1.703-17.528 11.488-33.173 29.494-34.923 18.005-1.75 33.962 11.064 35.665 28.59z" fill="#fff" stroke="#2C3489"/><path d="M109.802 91.366a33.708 33.708 0 0 1-29.65-12.58 32.718 32.718 0 0 0 29.741 13.476 32.722 32.722 0 0 0 26.582-18.934 33.712 33.712 0 0 1-26.673 18.039zm0 0-.048-.498m.048.498-.048-.498m.048.498-.048-.498m.048.498-.048-.498" fill="#FAFAFA" stroke="#2C3489"/><path opacity=".3" d="M103.457 26.114a33.713 33.713 0 0 0-26.71 18.117 32.723 32.723 0 0 1 56.352-5.547 33.716 33.716 0 0 0-29.643-12.57zm23.996 7.614a33.22 33.22 0 0 1 10.02 13.41l-63.369 6.254a33.212 33.212 0 0 1 53.349-19.664z" fill="#fff" stroke="#2C3489"/><path d="M76.58 27.348a44.118 44.118 0 0 1 5.316-4.334 43.852 43.852 0 0 1 12.701-6.057 43.872 43.872 0 0 1 6.714-1.403 42.078 42.078 0 0 1 6.603-.335L76.58 27.349zm37.647-11.513a43.444 43.444 0 0 1 19.821 8.838l-19.821-8.838z" fill="#FAFAFA" stroke="#2C3489"/><mask id="a" fill="#fff"><path d="M100.635 106.47a26.38 26.38 0 0 1-2.606-4.564 26.793 26.793 0 0 1 2.606 4.564z"/></mask><path d="M100.635 106.47a26.38 26.38 0 0 1-2.606-4.564 26.793 26.793 0 0 1 2.606 4.564z" fill="#fff"/><path d="m98.03 101.906.815-.579-1.73.986.914-.407zm3.419 3.984a25.382 25.382 0 0 1-2.506-4.391l-1.827.814a27.39 27.39 0 0 0 2.704 4.737l1.629-1.16zm-4.235-3.406a25.8 25.8 0 0 1 2.508 4.394l1.826-.816a27.825 27.825 0 0 0-2.703-4.735l-1.631 1.157z" fill="#2C3489" mask="url(#a)"/><mask id="b" fill="#fff"><path d="M93.455 104.181a12.328 12.328 0 0 1-1.363-2.125 12.126 12.126 0 0 1-1.132-2.254 24.049 24.049 0 0 1 2.505 4.379h-.01z"/></mask><path d="M93.455 104.181a12.328 12.328 0 0 1-1.363-2.125 12.126 12.126 0 0 1-1.132-2.254 24.049 24.049 0 0 1 2.505 4.379h-.01z" fill="#fff"/><path d="m93.455 104.181-.782.623.3.377h.482v-1zm-1.363-2.125.893-.45-.023-.046-.028-.043-.842.539zm-1.132-2.254.811-.585-1.746.938.935-.353zm2.505 4.379v1h1.533l-.618-1.403-.915.403zm.772-.624a11.33 11.33 0 0 1-1.252-1.951l-1.785.901c.41.814.905 1.584 1.473 2.297l1.564-1.247zm-1.302-2.04a11.162 11.162 0 0 1-1.04-2.069l-1.87.707c.322.854.733 1.672 1.225 2.44l1.684-1.078zm-2.786-1.13a23.027 23.027 0 0 1 2.4 4.197l1.831-.806a25.052 25.052 0 0 0-2.609-4.561l-1.622 1.17zm3.316 2.794h-.01v2h.01v-2z" fill="#2C3489" mask="url(#b)"/><mask id="c" fill="#fff"><path d="M86.876 101.029a12.495 12.495 0 0 1-1.358-2.124 12.213 12.213 0 0 1-1.137-2.255c.526.66.982 1.371 1.363 2.124.454.71.834 1.466 1.132 2.255z"/></mask><path d="M86.876 101.029a12.495 12.495 0 0 1-1.358-2.124 12.213 12.213 0 0 1-1.137-2.255c.526.66.982 1.371 1.363 2.124.454.71.834 1.466 1.132 2.255z" fill="#fff"/><path d="m85.518 98.904.893-.45-.023-.046-.028-.044-.842.54zm-1.137-2.254.782-.624-1.717.98.935-.356zm1.363 2.124-.893.451.023.046.027.042.843-.539zm1.916 1.634a11.48 11.48 0 0 1-1.25-1.954l-1.784.901c.41.813.901 1.581 1.466 2.295l1.568-1.242zm-1.3-2.044a11.21 11.21 0 0 1-1.044-2.07l-1.87.712c.325.853.737 1.67 1.23 2.439l1.684-1.08zm-2.761-1.09c.483.605.903 1.26 1.252 1.951l1.785-.902a13.314 13.314 0 0 0-1.473-2.296l-1.564 1.246zm1.302 2.04c.418.651.766 1.345 1.04 2.068l1.87-.707a13.159 13.159 0 0 0-1.225-2.44L84.9 99.313z" fill="#2C3489" mask="url(#c)"/><mask id="d" fill="#fff"><path d="M108.195 107.397a13.359 13.359 0 0 1-1.413-2.219 12.97 12.97 0 0 1-1.187-2.345 13.243 13.243 0 0 1 1.413 2.215c.474.74.872 1.528 1.187 2.349z"/></mask><path d="M108.195 107.397a13.359 13.359 0 0 1-1.413-2.219 12.97 12.97 0 0 1-1.187-2.345 13.243 13.243 0 0 1 1.413 2.215c.474.74.872 1.528 1.187 2.349z" fill="#fff"/><path d="m106.782 105.178.892-.452-.023-.045-.027-.043-.842.54zm-1.187-2.345.785-.619-1.718.978.933-.359zm1.413 2.215-.893.451.023.045.028.043.842-.539zm1.974 1.732c-.502-.64-.94-1.328-1.308-2.054l-1.784.903c.427.843.935 1.642 1.518 2.385l1.574-1.234zm-1.358-2.142a12.013 12.013 0 0 1-1.096-2.164l-1.866.718c.34.883.768 1.729 1.278 2.525l1.684-1.079zm-2.815-1.186c.502.637.94 1.323 1.306 2.047l1.785-.903a14.205 14.205 0 0 0-1.52-2.382l-1.571 1.238zm1.357 2.135c.438.684.805 1.41 1.095 2.168l1.868-.716a13.943 13.943 0 0 0-1.279-2.531l-1.684 1.079z" fill="#2C3489" mask="url(#d)"/><mask id="e" fill="#fff"><path d="M115.25 107.007a26.732 26.732 0 0 1-2.605-4.565 26.42 26.42 0 0 1 2.605 4.565z"/></mask><path d="M115.25 107.007a26.732 26.732 0 0 1-2.605-4.565 26.42 26.42 0 0 1 2.605 4.565z" fill="#fff"/><path d="m112.645 102.442.814-.579-1.727.987.913-.408zm3.42 3.986a25.769 25.769 0 0 1-2.508-4.394l-1.825.816a27.714 27.714 0 0 0 2.702 4.735l1.631-1.157zm-4.235-3.406a25.401 25.401 0 0 1 2.506 4.392l1.827-.814a27.337 27.337 0 0 0-2.704-4.737l-1.629 1.159z" fill="#2C3489" mask="url(#e)"/><mask id="f" fill="#fff"><path d="M122.164 105.498a13.247 13.247 0 0 1-1.418-2.215c-.47-.743-.868-1.53-1.188-2.349.546.69 1.021 1.434 1.418 2.219.471.742.868 1.527 1.188 2.345z"/></mask><path d="M122.164 105.498a13.247 13.247 0 0 1-1.418-2.215c-.47-.743-.868-1.53-1.188-2.349.546.69 1.021 1.434 1.418 2.219.471.742.868 1.527 1.188 2.345z" fill="#fff"/><path d="m120.746 103.283.891-.453-.021-.041-.025-.04-.845.534zm-1.188-2.349.785-.62-1.716.983.931-.363zm1.418 2.219-.892.452.022.043.026.041.844-.536zm1.973 1.725a12.35 12.35 0 0 1-1.312-2.048l-1.782.907c.428.842.939 1.639 1.524 2.381l1.57-1.24zm-1.358-2.129a12.831 12.831 0 0 1-1.101-2.179l-1.863.727c.343.879.77 1.723 1.274 2.521l1.69-1.069zm-2.817-1.196c.504.639.943 1.326 1.31 2.052l1.784-.904a14.17 14.17 0 0 0-1.525-2.387l-1.569 1.239zm1.358 2.136c.436.687.804 1.415 1.1 2.173l1.863-.728a14.599 14.599 0 0 0-1.274-2.516l-1.689 1.071z" fill="#2C3489" mask="url(#f)"/><mask id="g" fill="#fff"><path d="M128.486 103.183a13.24 13.24 0 0 1-1.418-2.219 13.816 13.816 0 0 1-1.187-2.345 13.06 13.06 0 0 1 1.418 2.215c.47.743.867 1.53 1.187 2.349z"/></mask><path d="M128.486 103.183a13.24 13.24 0 0 1-1.418-2.219 13.816 13.816 0 0 1-1.187-2.345 13.06 13.06 0 0 1 1.418 2.215c.47.743.867 1.53 1.187 2.349z" fill="#fff"/><path d="m127.068 100.964.892-.452-.021-.042-.025-.04-.846.534zm-1.187-2.345.783-.621-1.714.986.931-.365zm1.418 2.215-.893.451.022.043.025.04.846-.534zm1.972 1.73a12.273 12.273 0 0 1-1.311-2.052l-1.784.904c.428.844.939 1.644 1.525 2.387l1.57-1.239zm-1.357-2.134a12.798 12.798 0 0 1-1.102-2.176l-1.862.73c.344.877.77 1.719 1.273 2.514l1.691-1.068zm-2.817-1.19c.505.636.943 1.321 1.309 2.045l1.785-.903a14.025 14.025 0 0 0-1.527-2.384l-1.567 1.243zm1.356 2.128a12.8 12.8 0 0 1 1.102 2.179l1.863-.727a14.744 14.744 0 0 0-1.274-2.52l-1.691 1.068z" fill="#2C3489" mask="url(#g)"/><mask id="h" fill="#fff"><path d="M134.528 99.641a13.476 13.476 0 0 1-1.418-2.22c-.47-.743-.867-1.53-1.187-2.35.545.692 1.02 1.435 1.418 2.22.471.743.868 1.53 1.187 2.35z"/></mask><path d="M134.528 99.641a13.476 13.476 0 0 1-1.418-2.22c-.47-.743-.867-1.53-1.187-2.35.545.692 1.02 1.435 1.418 2.22.471.743.868 1.53 1.187 2.35z" fill="#fff"/><path d="m133.11 97.422.892-.454-.022-.041-.024-.04-.846.535zm-1.187-2.35.785-.62-1.717.984.932-.364zm1.418 2.22-.892.451.021.043.026.04.845-.535zm1.973 1.731a12.492 12.492 0 0 1-1.312-2.055l-1.783.907c.429.843.939 1.641 1.523 2.384l1.572-1.236zm-1.358-2.136c-.436-.69-.805-1.42-1.102-2.179l-1.863.728c.344.878.77 1.722 1.274 2.52l1.691-1.069zm-2.818-1.196c.504.639.943 1.326 1.311 2.052l1.784-.903a14.283 14.283 0 0 0-1.525-2.388l-1.57 1.24zm1.358 2.136a12.57 12.57 0 0 1 1.1 2.177l1.864-.725a14.538 14.538 0 0 0-1.275-2.523l-1.689 1.07z" fill="#2C3489" mask="url(#h)"/><mask id="i" fill="#fff"><path d="M139.759 95.302a13.482 13.482 0 0 1-1.418-2.22c-.47-.743-.868-1.53-1.188-2.35a13.15 13.15 0 0 1 1.418 2.22 13.6 13.6 0 0 1 1.188 2.35z"/></mask><path d="M139.759 95.302a13.482 13.482 0 0 1-1.418-2.22c-.47-.743-.868-1.53-1.188-2.35a13.15 13.15 0 0 1 1.418 2.22 13.6 13.6 0 0 1 1.188 2.35z" fill="#fff"/><path d="m138.341 93.083.891-.454-.021-.041-.025-.04-.845.535zm-1.188-2.35.785-.62-1.716.984.931-.364zm1.418 2.22-.892.451.022.043.026.04.844-.535zm1.974 1.731a12.498 12.498 0 0 1-1.313-2.055l-1.782.907c.428.843.938 1.641 1.522 2.384l1.573-1.236zm-1.359-2.135c-.436-.69-.804-1.42-1.101-2.18l-1.863.728c.343.878.769 1.722 1.273 2.52l1.691-1.068zm-2.818-1.197c.504.64.944 1.326 1.311 2.052l1.784-.903a14.152 14.152 0 0 0-1.525-2.388l-1.57 1.24zm1.359 2.136c.436.688.804 1.417 1.1 2.177l1.864-.725c-.343-.88-.77-1.725-1.275-2.523l-1.689 1.07z" fill="#2C3489" mask="url(#i)"/><mask id="j" fill="#fff"><path d="M143.924 90.743a13.588 13.588 0 0 1-1.413-2.22 12.926 12.926 0 0 1-1.188-2.35 13.38 13.38 0 0 1 1.413 2.22c.476.74.874 1.528 1.188 2.35z"/></mask><path d="M143.924 90.743a13.588 13.588 0 0 1-1.413-2.22 12.926 12.926 0 0 1-1.188-2.35 13.38 13.38 0 0 1 1.413 2.22c.476.74.874 1.528 1.188 2.35z" fill="#fff"/><path d="m142.511 88.524.891-.454-.023-.044-.026-.042-.842.54zm-1.188-2.35.787-.617-1.721.975.934-.358zm1.413 2.22-.892.451.023.046.028.043.841-.54zm1.976 1.734a12.631 12.631 0 0 1-1.31-2.058l-1.783.907c.428.84.936 1.638 1.517 2.382l1.576-1.231zm-1.359-2.144a11.97 11.97 0 0 1-1.096-2.168l-1.868.716c.34.885.768 1.733 1.28 2.531l1.684-1.079zm-2.817-1.193c.503.64.94 1.328 1.308 2.054l1.784-.903a14.364 14.364 0 0 0-1.518-2.385l-1.574 1.234zm1.359 2.143c.438.682.805 1.408 1.094 2.166l1.869-.713a13.808 13.808 0 0 0-1.281-2.534l-1.682 1.081z" fill="#2C3489" mask="url(#j)"/><mask id="k" fill="#fff"><path d="M147.701 85.472a27.04 27.04 0 0 1-2.605-4.57 13.548 13.548 0 0 1 1.418 2.22c.472.743.87 1.53 1.187 2.35z"/></mask><path d="M147.701 85.472a27.04 27.04 0 0 1-2.605-4.57 13.548 13.548 0 0 1 1.418 2.22c.472.743.87 1.53 1.187 2.35z" fill="#fff"/><path d="m145.096 80.903.786-.618-1.699 1.026.913-.408zm1.418 2.22-.892.453.022.043.026.04.844-.537zm2.003 1.772a26.117 26.117 0 0 1-2.509-4.4l-1.825.816a27.974 27.974 0 0 0 2.702 4.739l1.632-1.155zm-4.207-3.374c.503.64.943 1.329 1.312 2.055l1.783-.907a14.526 14.526 0 0 0-1.523-2.384l-1.572 1.236zm1.36 2.138c.437.687.805 1.415 1.098 2.174l1.866-.722a14.383 14.383 0 0 0-1.277-2.525l-1.687 1.073z" fill="#2C3489" mask="url(#k)"/><mask id="l" fill="#fff"><path d="M150.782 79.49a13.273 13.273 0 0 1-1.418-2.22 13.594 13.594 0 0 1-1.187-2.35 13.48 13.48 0 0 1 1.418 2.22c.469.744.867 1.53 1.187 2.35z"/></mask><path d="M150.782 79.49a13.273 13.273 0 0 1-1.418-2.22 13.594 13.594 0 0 1-1.187-2.35 13.48 13.48 0 0 1 1.418 2.22c.469.744.867 1.53 1.187 2.35z" fill="#fff"/><path d="m149.364 77.27.892-.452-.021-.043-.026-.04-.845.535zm-1.187-2.35.786-.618-1.718.98.932-.362zm1.418 2.22-.892.454.021.04.025.04.846-.534zm1.972 1.73a12.263 12.263 0 0 1-1.311-2.052l-1.784.904c.428.845.939 1.644 1.525 2.387l1.57-1.239zm-1.358-2.135a12.583 12.583 0 0 1-1.1-2.177l-1.864.725c.342.88.769 1.725 1.275 2.523l1.689-1.071zm-2.818-1.197c.503.641.943 1.33 1.312 2.056l1.783-.908a14.526 14.526 0 0 0-1.523-2.384l-1.572 1.236zm1.358 2.136c.436.69.805 1.42 1.102 2.18l1.863-.728a14.845 14.845 0 0 0-1.274-2.52l-1.691 1.068z" fill="#2C3489" mask="url(#l)"/><mask id="m" fill="#fff"><path d="M152.736 72.777a13.273 13.273 0 0 1-1.418-2.22 13.608 13.608 0 0 1-1.187-2.36 13.476 13.476 0 0 1 1.418 2.22c.47.747.868 1.537 1.187 2.36z"/></mask><path d="M152.736 72.777a13.273 13.273 0 0 1-1.418-2.22 13.608 13.608 0 0 1-1.187-2.36 13.476 13.476 0 0 1 1.418 2.22c.47.747.868 1.537 1.187 2.36z" fill="#fff"/><path d="m151.318 70.557.892-.452-.021-.042-.025-.04-.846.534zm-1.187-2.36.786-.618-1.719.979.933-.36zm1.418 2.22-.891.453.02.041.025.039.846-.533zm1.972 1.74a12.263 12.263 0 0 1-1.311-2.052l-1.784.904c.428.844.939 1.644 1.525 2.387l1.57-1.239zm-1.357-2.134a12.518 12.518 0 0 1-1.1-2.186l-1.866.72a14.63 14.63 0 0 0 1.275 2.534l1.691-1.068zm-2.819-1.208c.503.64.943 1.33 1.313 2.055l1.782-.907a14.526 14.526 0 0 0-1.523-2.384l-1.572 1.236zm1.358 2.135c.436.692.805 1.425 1.101 2.188l1.864-.723a14.788 14.788 0 0 0-1.273-2.531l-1.692 1.066z" fill="#2C3489" mask="url(#m)"/><mask id="n" fill="#fff"><path d="M153.643 65.651a19.56 19.56 0 0 1-1.698-2.71 19.125 19.125 0 0 1-1.468-2.84 39.994 39.994 0 0 1 3.166 5.55z"/></mask><path d="M153.643 65.651a19.56 19.56 0 0 1-1.698-2.71 19.125 19.125 0 0 1-1.468-2.84 39.994 39.994 0 0 1 3.166 5.55z" fill="#fff"/><path d="m151.945 62.94.888-.459-.019-.036-.022-.035-.847.53zm-1.468-2.84.826-.563-1.75.947.924-.384zm3.967 4.953a18.598 18.598 0 0 1-1.611-2.572l-1.776.92c.516.997 1.113 1.95 1.785 2.849l1.602-1.197zm-1.652-2.643a18.302 18.302 0 0 1-1.392-2.694l-1.847.768a20.33 20.33 0 0 0 1.544 2.988l1.695-1.062zm-3.142-1.746a38.956 38.956 0 0 1 3.088 5.412l1.811-.849a41.05 41.05 0 0 0-3.246-5.69l-1.653 1.127z" fill="#2C3489" mask="url(#n)"/><mask id="o" fill="#fff"><path d="M152.66 55.616a19.913 19.913 0 0 1-1.693-2.71 20.043 20.043 0 0 1-1.473-2.836 19.184 19.184 0 0 1 1.699 2.71 20.124 20.124 0 0 1 1.467 2.836z"/></mask><path d="M152.66 55.616a19.913 19.913 0 0 1-1.693-2.71 20.043 20.043 0 0 1-1.473-2.836 19.184 19.184 0 0 1 1.699 2.71 20.124 20.124 0 0 1 1.467 2.836z" fill="#fff"/><path d="m150.967 52.906.888-.46-.019-.036-.021-.034-.848.53zm-1.473-2.836.8-.6-1.721.989.921-.39zm1.699 2.71-.889.459.018.036.022.034.849-.529zm2.27 2.24a18.881 18.881 0 0 1-1.608-2.574l-1.776.92a20.76 20.76 0 0 0 1.779 2.847l1.605-1.193zm-1.648-2.645a19.102 19.102 0 0 1-1.4-2.694l-1.842.778a20.99 20.99 0 0 0 1.546 2.977l1.696-1.06zm-3.121-1.705c.607.81 1.146 1.67 1.61 2.569l1.777-.917a20.168 20.168 0 0 0-1.787-2.852l-1.6 1.2zm1.65 2.64c.536.859 1.002 1.76 1.395 2.694l1.843-.775a20.97 20.97 0 0 0-1.541-2.978l-1.697 1.058z" fill="#2C3489" mask="url(#o)"/><path d="m31.034 5.861.017.009.017.007.2-.458-.2.458.003.002.011.005.047.02.184.083c.162.073.398.183.698.325.598.285 1.446.704 2.44 1.236 1.992 1.064 4.56 2.576 6.888 4.374 2.337 1.805 4.383 3.862 5.39 6.003.5 1.063.738 2.131.642 3.196-.095 1.06-.525 2.154-1.418 3.264C42.89 28.2 38.2 29.065 33.27 28.51c-4.925-.554-9.976-2.518-13.59-4.213a59.283 59.283 0 0 1-11.606-7.45C5.218 14.464 2.633 11.5 1.35 8.415.085 5.372.091 2.243 2.328-.631l.01-.007a2.85 2.85 0 0 1 .216-.13c.202-.111.527-.266.991-.42.928-.306 2.421-.611 4.623-.553 4.407.116 11.652 1.687 22.866 7.602z" fill="#fff" stroke="#2C3489"/><path opacity=".4" d="m31.034 5.861.017.009.017.007.2-.458-.2.458.003.002.011.005.047.02.184.083c.162.073.398.183.698.325.598.285 1.446.704 2.44 1.236 1.992 1.064 4.56 2.576 6.888 4.374 2.337 1.805 4.383 3.862 5.39 6.003.5 1.063.738 2.131.642 3.196-.095 1.06-.525 2.154-1.418 3.264C42.89 28.2 38.2 29.065 33.27 28.51c-4.925-.554-9.976-2.518-13.59-4.213a59.283 59.283 0 0 1-11.606-7.45C5.218 14.464 2.633 11.5 1.35 8.415.085 5.372.091 2.243 2.328-.631l.01-.007a2.85 2.85 0 0 1 .216-.13c.202-.111.527-.266.991-.42.928-.306 2.421-.611 4.623-.553 4.407.116 11.652 1.687 22.866 7.602z" fill="#fff" stroke="#2C3489"/><path d="M9.336-3.555c4.675-.569 12.187.294 23.374 6.2l.008.005.046.026.18.105a63.522 63.522 0 0 1 3.05 1.943c1.927 1.307 4.403 3.135 6.613 5.226 2.22 2.1 4.126 4.423 4.976 6.715.422 1.139.576 2.252.394 3.321-.182 1.065-.703 2.121-1.692 3.142-2.703 2.788-7.04 3.188-11.744 2.393-4.68-.791-9.565-2.741-13.182-4.437-3.796-1.781-9.072-4.755-12.255-7.445l-.003-.002c-2.877-2.39-5.332-5.077-6.608-7.68-1.265-2.58-1.341-4.991.355-7.014l.003-.003c.011-.011.03-.03.058-.055.055-.05.142-.125.263-.218a8.19 8.19 0 0 1 1.14-.73c1.046-.563 2.685-1.207 5.024-1.492z" fill="#fff" stroke="#2C3489"/><path opacity=".2" d="M28.271 4.48c4.875 2.575 8.861 5.667 11.368 8.567 1.255 1.452 2.122 2.835 2.556 4.063.434 1.227.42 2.248 0 3.043-.42.794-1.255 1.381-2.513 1.715-1.259.334-2.89.398-4.796.18-3.81-.436-8.61-1.984-13.485-4.558-4.875-2.575-8.86-5.667-11.368-8.568C8.778 7.471 7.91 6.088 7.477 4.86c-.433-1.227-.42-2.249 0-3.043S8.732.435 9.99.102c1.259-.334 2.89-.398 4.796-.18 3.81.435 8.61 1.984 13.485 4.558z" fill="#fff" stroke="#2C3489"/><mask id="p" fill="#fff"><path d="M3.48-2.137s.15-.135.501-.326a7.28 7.28 0 0 1 .617-.325c.25-.116.536-.26.872-.391a18.898 18.898 0 0 1 5.912-1.348 25.39 25.39 0 0 1 4.208.055c1.602.167 3.189.458 4.745.872 3.519 1 6.934 2.332 10.2 3.978C37.62 3.72 43.173 8.435 46.169 12.623c1.503 2.104 2.24 4.144 2.355 5.592 0 .18.035.345.05.5v.447c.005.235-.013.47-.055.701-.007.193-.05.383-.126.561-.08 0 .066-.796-.165-2.18a12.527 12.527 0 0 0-2.505-5.305C42.686 8.93 37.204 4.36 30.19 1.075a60.428 60.428 0 0 0-10.1-4.009 31.884 31.884 0 0 0-4.585-.891 26.434 26.434 0 0 0-4.103-.15A21.103 21.103 0 0 0 5.56-2.9c-1.353.451-2.054.827-2.08.762z"/></mask><path d="M3.48-2.137s.15-.135.501-.326a7.28 7.28 0 0 1 .617-.325c.25-.116.536-.26.872-.391a18.898 18.898 0 0 1 5.912-1.348 25.39 25.39 0 0 1 4.208.055c1.602.167 3.189.458 4.745.872 3.519 1 6.934 2.332 10.2 3.978C37.62 3.72 43.173 8.435 46.169 12.623c1.503 2.104 2.24 4.144 2.355 5.592 0 .18.035.345.05.5v.447c.005.235-.013.47-.055.701-.007.193-.05.383-.126.561-.08 0 .066-.796-.165-2.18a12.527 12.527 0 0 0-2.505-5.305C42.686 8.93 37.204 4.36 30.19 1.075a60.428 60.428 0 0 0-10.1-4.009 31.884 31.884 0 0 0-4.585-.891 26.434 26.434 0 0 0-4.103-.15A21.103 21.103 0 0 0 5.56-2.9c-1.353.451-2.054.827-2.08.762z" fill="#FAFAFA"/><path d="m3.48-2.137-.668-.743-.512.46.247.642.933-.359zm.501-.326.478.88.01-.007.011-.006-.499-.867zm1.489-.716.361.932.007-.003.007-.002-.375-.927zm5.912-1.348.063.998h.006l-.07-.998zm4.208.055.104-.994-.008-.001-.096.995zm4.745.872.273-.962-.008-.002-.008-.002-.257.966zm10.2 3.978-.45.893.012.006.012.006.427-.905zm15.633 12.245.813-.581-.813.581zm2.355 5.592h1v-.04l-.004-.04-.996.08zm.05.5h1v-.048l-.005-.048-.995.097zm0 .447h-1v.023l1-.023zm-.055.701-.984-.18-.013.072-.003.072 1 .036zm-.126.561v1h.66l.26-.607-.92-.393zm-.165-2.18.986-.164-.003-.02-.004-.019-.979.204zm-2.505-5.305-.797.604.009.011.009.012.779-.627zM30.19 1.075l-.45.892.012.007.014.006.424-.905zm-10.1-4.009.283-.959-.01-.003-.011-.003-.263.965zm-4.585-.891.119-.993h-.005l-.114.993zm-4.103-.15.04.998-.04-.999zM5.56-2.9l.316.95.002-.001L5.56-2.9zm-2.08.762.67.744h-.001l-.002.002-.003.002-.004.003a.471.471 0 0 1-.005.005c-.003.002-.003.002 0 0a2.83 2.83 0 0 1 .324-.204L3.504-3.34a4.81 4.81 0 0 0-.482.297 2.917 2.917 0 0 0-.208.162l-.001.001v.001h-.001l.668.744zm1 .541c.165-.095.33-.19.536-.284L4.18-3.697c-.296.136-.531.272-.697.368l.997 1.733zm.536-.284c.294-.135.517-.251.815-.367L5.108-4.11c-.374.145-.721.319-.928.414l.836 1.817zm.83-.372a17.899 17.899 0 0 1 5.599-1.277l-.126-1.996c-2.138.135-4.24.614-6.225 1.42l.751 1.853zM11.45-3.53a24.39 24.39 0 0 1 4.043.053l.192-1.991a26.392 26.392 0 0 0-4.374-.057l.14 1.995zm4.036.052c1.55.16 3.085.443 4.59.843l.515-1.932a31.865 31.865 0 0 0-4.898-.9l-.207 1.989zm4.575.839a56.7 56.7 0 0 1 10.024 3.91l.9-1.787a58.702 58.702 0 0 0-10.378-4.047l-.546 1.924zm10.047 3.92c6.956 3.282 12.364 7.895 15.245 11.923l1.627-1.164c-3.11-4.349-8.806-9.165-16.019-12.567l-.853 1.809zm15.245 11.922c1.428 2 2.075 3.868 2.172 5.09l1.993-.159c-.133-1.674-.959-3.883-2.538-6.093l-1.627 1.162zm2.169 5.01c0 .154.014.289.027.387.016.123.022.152.027.211l1.991-.193a4.162 4.162 0 0 0-.018-.155l-.016-.116a1.093 1.093 0 0 1-.011-.133h-2zm.05.502v.446h2v-.446h-2zm0 .47c.004.166-.01.333-.04.498l1.968.358c.055-.298.079-.6.071-.904l-1.999.047zm-.055.641a.574.574 0 0 1-.045.205l1.84.785c.123-.291.193-.602.204-.918l-1.999-.072zm.874-.403c.509 0 .777.351.864.509.079.143.098.267.102.287.01.06.008.095.007.045v-.158a11.014 11.014 0 0 0-.152-2.027l-1.972.33c.104.624.123 1.114.125 1.45 0 .099-.002.375 0 .431 0 .046.001.154.02.263.007.045.032.188.118.343.093.17.37.527.888.527v-2zm.814-1.383a13.525 13.525 0 0 0-2.705-5.729l-1.558 1.254a11.526 11.526 0 0 1 2.305 4.882l1.958-.407zm-2.687-5.706C43.371 8.18 37.754 3.515 30.614.169l-.848 1.811C36.655 5.208 42 9.681 44.925 13.543l1.594-1.208zM30.641.182a61.43 61.43 0 0 0-10.268-4.075l-.567 1.918a59.431 59.431 0 0 1 9.933 3.942l.902-1.785zm-10.29-4.08a32.889 32.889 0 0 0-4.727-.92l-.238 1.985c1.5.18 2.984.468 4.441.864l.525-1.93zm-4.732-.92a27.435 27.435 0 0 0-4.258-.157l.082 1.998a25.435 25.435 0 0 1 3.948.145l.228-1.987zm-4.258-.157a22.103 22.103 0 0 0-6.12 1.128l.637 1.897a20.103 20.103 0 0 1 5.565-1.027l-.082-1.998zM5.243-3.847a24.68 24.68 0 0 0-1.6.597c-.188.077-.294.121-.361.146-.041.015-.015.003.04-.009.018-.003.128-.027.275-.011.124.013.614.1.817.628l-1.867.718c.206.536.704.628.842.643.16.016.29-.01.332-.018.104-.02.2-.055.249-.073.113-.042.272-.108.43-.173.34-.139.83-.336 1.476-.55l-.633-1.898z" fill="#2C3489" mask="url(#p)"/><path opacity=".4" d="M28.945 3.253c5.618 3.05 8.962 5.93 10.934 8.386-2.1-2.39-5.424-5.096-10.663-7.85C22.996.527 18.381-.794 14.995-1.114c3.276.004 7.818 1.038 13.949 4.367z" fill="#fff" stroke="#2C3489"/><mask id="q" fill="#fff"><path d="M38.552 28.966c-.1 0 .055-.636.316-1.353.12-.453.326-.88.606-1.257a4.06 4.06 0 0 1-.36 1.348 5.553 5.553 0 0 1-.562 1.262z"/></mask><path d="M38.552 28.966c-.1 0 .055-.636.316-1.353.12-.453.326-.88.606-1.257a4.06 4.06 0 0 1-.36 1.348 5.553 5.553 0 0 1-.562 1.262z" fill="#fff"/><path d="m38.868 27.613.94.342.015-.042.011-.043-.966-.257zm.606-1.257.996.089.314-3.528-2.112 2.842.802.597zm-.36 1.348-.908-.421-.03.064-.02.067.957.29zm-.562.262a.98.98 0 0 1 .943.723.83.83 0 0 1 .026.17v.06c-.001.015.001-.021.027-.13.047-.2.138-.5.26-.834l-1.88-.683a10 10 0 0 0-.326 1.056c-.033.14-.067.307-.077.464-.004.063-.012.219.033.395a1.02 1.02 0 0 0 .994.78v-2zm1.282-.096a2.7 2.7 0 0 1 .443-.918l-1.605-1.193a4.695 4.695 0 0 0-.77 1.598l1.932.513zm-1.356-1.603a3.06 3.06 0 0 1-.272 1.016l1.814.841c.246-.53.398-1.098.45-1.68l-1.992-.177zm-.322 1.148c-.11.362-.264.71-.46 1.035l1.712 1.033c.282-.467.505-.968.663-1.49l-1.915-.578z" fill="#2C3489" mask="url(#q)"/><mask id="r" fill="#fff"><path d="M42.725 27.684c-.1 0 0-.526.226-1.097.225-.571.446-1.027.5-1.002-.008.38-.1.752-.27 1.092-.099.357-.253.697-.456 1.007z"/></mask><path d="M42.725 27.684c-.1 0 0-.526.226-1.097.225-.571.446-1.027.5-1.002-.008.38-.1.752-.27 1.092-.099.357-.253.697-.456 1.007z" fill="#fff"/><path d="M42.725 27.684v1h.541l.296-.452-.837-.548zm.727-2.099 1 .023.015-.66-.601-.273-.414.91zm-.27 1.092-.896-.446-.043.086-.025.093.963.267zm-.457.007a.975.975 0 0 1 .896.594c.065.158.065.283.065.295.001.05-.005.05.01-.026.027-.134.09-.35.185-.593l-1.86-.734c-.13.329-.23.66-.285.933a2.174 2.174 0 0 0-.05.46c.002.07.01.242.087.43.086.207.37.641.952.641v-2zm1.156.27c.107-.27.207-.5.28-.648.04-.08.058-.108.054-.103a.796.796 0 0 1-.102.118.986.986 0 0 1-1.075.174l.828-1.82a1.014 1.014 0 0 0-1.132.198c-.094.09-.157.182-.185.225-.068.101-.13.219-.18.32-.107.217-.23.502-.348.802l1.86.734zm-1.429-1.392a1.58 1.58 0 0 1-.166.669l1.79.892a3.58 3.58 0 0 0 .376-1.515l-2-.046zm-.234.848a2.592 2.592 0 0 1-.33.727l1.674 1.095c.26-.396.456-.83.583-1.287l-1.927-.535z" fill="#2C3489" mask="url(#r)"/><mask id="s" fill="#fff"><path d="M34.874 29.117c.043-.519.174-1.027.386-1.503.13-.498.343-.97.631-1.398a4.683 4.683 0 0 1-.386 1.503 4.507 4.507 0 0 1-.631 1.398z"/></mask><path d="M34.874 29.117c.043-.519.174-1.027.386-1.503.13-.498.343-.97.631-1.398a4.683 4.683 0 0 1-.386 1.503 4.507 4.507 0 0 1-.631 1.398z" fill="#fff"/><path d="m35.26 27.614.913.407.034-.075.02-.079-.967-.253zm.631-1.398.997.085.326-3.84-2.152 3.197.83.558zm-.386 1.503-.914-.405-.033.075-.02.08.967.25zm.365 1.482c.035-.408.137-.806.303-1.18l-1.827-.814a5.642 5.642 0 0 0-.468 1.827l1.992.167zm.357-1.334c.102-.39.269-.758.494-1.092l-1.66-1.117c-.35.52-.61 1.096-.769 1.703l1.935.506zm-1.332-1.735a3.686 3.686 0 0 1-.304 1.182l1.828.811a5.687 5.687 0 0 0 .469-1.824l-1.993-.17zm-.358 1.337c-.1.388-.266.756-.491 1.088l1.656 1.12a5.508 5.508 0 0 0 .771-1.707l-1.936-.501z" fill="#2C3489" mask="url(#s)"/><mask id="t" fill="#fff"><path d="M31.292 28.72a5.139 5.139 0 0 1 .42-1.583c.14-.534.365-1.041.667-1.503a10.242 10.242 0 0 1-1.087 3.077v.01z"/></mask><path d="M31.292 28.72a5.139 5.139 0 0 1 .42-1.583c.14-.534.365-1.041.667-1.503a10.242 10.242 0 0 1-1.087 3.077v.01z" fill="#fff"/><path d="M31.292 28.72h-1l1.995.1-.995-.1zm.42-1.583.914.408.034-.076.02-.08-.967-.252zm.667-1.503.984.179-1.82-.726.836.547zm-1.087 3.077-.878-.48-.122.224v.256h1zm.995.11c.044-.441.158-.872.339-1.276L30.8 26.73a6.14 6.14 0 0 0-.503 1.891l1.99.2zm.393-1.431c.112-.43.293-.837.536-1.208l-1.674-1.095a6.086 6.086 0 0 0-.797 1.798l1.935.505zm-1.285-1.934a9.24 9.24 0 0 1-.98 2.775l1.755.959a11.24 11.24 0 0 0 1.193-3.377l-1.968-.357zm-1.103 3.255v.01h2v-.01h-2z" fill="#2C3489" mask="url(#t)"/><mask id="u" fill="#fff"><path d="M27.395 27.663a5.143 5.143 0 0 1 .42-1.583c.142-.533.367-1.04.667-1.503-.057.547-.2 1.08-.421 1.583a5.157 5.157 0 0 1-.666 1.503z"/></mask><path d="M27.395 27.663a5.143 5.143 0 0 1 .42-1.583c.142-.533.367-1.04.667-1.503-.057.547-.2 1.08-.421 1.583a5.157 5.157 0 0 1-.666 1.503z" fill="#fff"/><path d="m27.815 26.08.913.408.033-.073.02-.078-.966-.257zm.667-1.503.994.104-1.834-.648.84.544zm-.421 1.583-.915-.403-.032.072-.02.077.967.254zm.329 1.603c.044-.44.158-.87.338-1.275l-1.826-.815a6.14 6.14 0 0 0-.503 1.89l1.99.2zm.392-1.426c.114-.431.296-.842.539-1.216l-1.679-1.088a6.237 6.237 0 0 0-.793 1.79l1.933.514zm-1.295-1.864a4.282 4.282 0 0 1-.341 1.284l1.83.807a6.278 6.278 0 0 0 .5-1.883l-1.989-.208zm-.393 1.433c-.113.43-.295.84-.537 1.212l1.675 1.091c.36-.552.628-1.157.796-1.794l-1.934-.509z" fill="#2C3489" mask="url(#u)"/><mask id="v" fill="#fff"><path d="M23.792 26.381a5.137 5.137 0 0 1 .42-1.583c.142-.533.367-1.04.667-1.503-.057.546-.199 1.08-.42 1.583a5.155 5.155 0 0 1-.667 1.503z"/></mask><path d="M23.792 26.381a5.137 5.137 0 0 1 .42-1.583c.142-.533.367-1.04.667-1.503-.057.546-.199 1.08-.42 1.583a5.155 5.155 0 0 1-.667 1.503z" fill="#fff"/><path d="m24.213 24.798.913.408.033-.074.02-.077-.966-.257zm.666-1.503.995.104-1.834-.648.84.544zm-.42 1.583-.915-.404-.033.073-.02.077.967.254zm.328 1.603c.044-.44.159-.871.339-1.275L23.3 24.39a6.14 6.14 0 0 0-.503 1.892l1.99.199zm.392-1.426c.115-.431.297-.842.54-1.216L24.04 22.75a6.235 6.235 0 0 0-.794 1.79l1.933.514zm-1.294-1.864a4.279 4.279 0 0 1-.341 1.284l1.83.807a6.282 6.282 0 0 0 .5-1.883l-1.99-.208zm-.394 1.433c-.113.43-.294.839-.537 1.211l1.676 1.092c.36-.552.628-1.158.796-1.794l-1.935-.51z" fill="#2C3489" mask="url(#v)"/><mask id="w" fill="#fff"><path d="M20.19 25.109a5.14 5.14 0 0 1 .42-1.584c.142-.532.367-1.04.667-1.502a10.34 10.34 0 0 1-1.088 3.086z"/></mask><path d="M20.19 25.109a5.14 5.14 0 0 1 .42-1.584c.142-.532.367-1.04.667-1.502a10.34 10.34 0 0 1-1.088 3.086z" fill="#fff"/><path d="m20.19 25.109-.996-.1 1.874.577-.879-.477zm.42-1.584.913.408.033-.073.02-.078-.966-.256zm.667-1.502.984.178-1.823-.722.839.544zm-.093 3.185c.045-.44.159-.87.34-1.275l-1.827-.815a6.14 6.14 0 0 0-.503 1.891l1.99.2zm.393-1.426c.114-.43.296-.841.539-1.216l-1.678-1.087a6.234 6.234 0 0 0-.794 1.79l1.933.513zm-1.284-1.938a9.337 9.337 0 0 1-.982 2.787l1.757.955a11.34 11.34 0 0 0 1.193-3.385l-1.968-.357z" fill="#2C3489" mask="url(#w)"/><mask id="x" fill="#fff"><path d="M16.808 23.195a5.21 5.21 0 0 1 .416-1.583c.142-.533.367-1.04.666-1.503a5.211 5.211 0 0 1-.416 1.583 5.315 5.315 0 0 1-.666 1.503z"/></mask><path d="M16.808 23.195a5.21 5.21 0 0 1 .416-1.583c.142-.533.367-1.04.666-1.503a5.211 5.211 0 0 1-.416 1.583 5.315 5.315 0 0 1-.666 1.503z" fill="#fff"/><path d="m17.224 21.612.915.403.03-.07.02-.074-.965-.259zm.666-1.503.995.099-1.836-.64.84.54zm-.416 1.583-.915-.403-.031.07-.02.074.966.26zm.329 1.602c.044-.441.157-.873.336-1.28l-1.83-.805a6.211 6.211 0 0 0-.497 1.887l1.99.198zm.386-1.423c.116-.432.299-.844.541-1.22l-1.68-1.084a6.317 6.317 0 0 0-.792 1.786l1.931.518zm-1.294-1.861a4.211 4.211 0 0 1-.336 1.28l1.83.805c.264-.6.431-1.236.496-1.887l-1.99-.198zm-.387 1.423a4.315 4.315 0 0 1-.54 1.22l1.68 1.084c.355-.55.622-1.153.792-1.786l-1.932-.518z" fill="#2C3489" mask="url(#x)"/><mask id="y" fill="#fff"><path d="M13.451 21.206a10.335 10.335 0 0 1 1.087-3.081 5.14 5.14 0 0 1-.42 1.583 5.234 5.234 0 0 1-.667 1.498z"/></mask><path d="M13.451 21.206a10.335 10.335 0 0 1 1.087-3.081 5.14 5.14 0 0 1-.42 1.583 5.234 5.234 0 0 1-.667 1.498z" fill="#fff"/><path d="m14.538 18.125.995.1-1.873-.578.878.478zm-.42 1.583-.914-.408-.032.073-.02.076.966.259zm.317 1.677c.178-.974.51-1.913.982-2.783l-1.757-.955a11.338 11.338 0 0 0-1.193 3.38l1.968.358zm-.892-3.36a4.14 4.14 0 0 1-.339 1.275l1.827.815a6.14 6.14 0 0 0 .502-1.89l-1.99-.2zm-.391 1.424c-.115.43-.297.84-.54 1.212l1.678 1.09c.357-.55.624-1.152.794-1.785l-1.932-.517z" fill="#2C3489" mask="url(#y)"/><mask id="z" fill="#fff"><path d="M10.124 19.127c.058-.546.2-1.08.42-1.583.143-.533.367-1.04.667-1.503a5.278 5.278 0 0 1-.42 1.583 5.155 5.155 0 0 1-.667 1.503z"/></mask><path d="M10.124 19.127c.058-.546.2-1.08.42-1.583.143-.533.367-1.04.667-1.503a5.278 5.278 0 0 1-.42 1.583 5.155 5.155 0 0 1-.667 1.503z" fill="#fff"/><path d="m10.545 17.544.915.402.031-.07.02-.076-.966-.256zm.666-1.503.995.103-1.834-.647.84.544zm-.42 1.583-.916-.404-.032.073-.02.076.967.255zm.327 1.608c.047-.444.163-.877.342-1.286l-1.83-.805a6.315 6.315 0 0 0-.5 1.88l1.988.21zm.393-1.432c.115-.43.297-.841.54-1.216l-1.679-1.087a6.238 6.238 0 0 0-.794 1.79l1.933.513zm-1.294-1.863a4.282 4.282 0 0 1-.342 1.283l1.83.808a6.279 6.279 0 0 0 .5-1.884l-1.988-.207zm-.394 1.432c-.113.43-.294.84-.537 1.212l1.676 1.092c.36-.552.628-1.158.796-1.795l-1.935-.509z" fill="#2C3489" mask="url(#z)"/><mask id="A" fill="#fff"><path d="M7.078 16.767a10.337 10.337 0 0 1 1.087-3.082c-.057.547-.2 1.081-.42 1.584a5.157 5.157 0 0 1-.667 1.498z"/></mask><path d="M7.078 16.767a10.337 10.337 0 0 1 1.087-3.082c-.057.547-.2 1.081-.42 1.584a5.157 5.157 0 0 1-.667 1.498z" fill="#fff"/><path d="m8.165 13.685.995.105-1.873-.582.878.477zm-.42 1.584-.916-.403-.031.071-.02.076.966.256zm.317 1.677c.178-.974.51-1.913.982-2.783l-1.757-.955a11.337 11.337 0 0 0-1.193 3.38l1.968.358zm-.891-3.365a4.315 4.315 0 0 1-.342 1.285l1.83.806a6.315 6.315 0 0 0 .5-1.882l-1.988-.21zm-.393 1.432a4.155 4.155 0 0 1-.537 1.207l1.675 1.093c.358-.55.627-1.153.795-1.788l-1.933-.512z" fill="#2C3489" mask="url(#A)"/><mask id="B" fill="#fff"><path d="M4.142 13.856a10.337 10.337 0 0 1 1.087-3.082c-.058.547-.2 1.08-.421 1.584a5.155 5.155 0 0 1-.666 1.498z"/></mask><path d="M4.142 13.856a10.337 10.337 0 0 1 1.087-3.082c-.058.547-.2 1.08-.421 1.584a5.155 5.155 0 0 1-.666 1.498z" fill="#fff"/><path d="m5.229 10.774.994.105-1.873-.582.879.477zm-.421 1.584-.915-.403-.032.071-.02.076.967.256zm.317 1.677c.178-.974.51-1.913.982-2.783l-1.757-.955a11.335 11.335 0 0 0-1.192 3.38l1.967.358zm-.89-3.366a4.316 4.316 0 0 1-.342 1.286l1.83.805a6.316 6.316 0 0 0 .5-1.88l-1.989-.21zm-.394 1.433a4.156 4.156 0 0 1-.537 1.207l1.675 1.093c.359-.55.628-1.153.796-1.788l-1.934-.512z" fill="#2C3489" mask="url(#B)"/><mask id="C" fill="#fff"><path d="M1.917 10.424c.04-.488.161-.966.36-1.413.125-.477.332-.928.612-1.333-.04.483-.162.956-.36 1.398a4.138 4.138 0 0 1-.612 1.348z"/></mask><path d="M1.917 10.424c.04-.488.161-.966.36-1.413.125-.477.332-.928.612-1.333-.04.483-.162.956-.36 1.398a4.138 4.138 0 0 1-.612 1.348z" fill="#fff"/><path d="m2.278 9.01.913.409.034-.076.02-.08-.967-.252zm.611-1.332.996.084.313-3.734L2.067 7.11l.822.57zm-.36 1.398-.913-.409-.036.08-.022.086.97.243zm.385 1.428c.03-.375.123-.742.277-1.085l-1.826-.816a5.309 5.309 0 0 0-.445 1.741l1.994.16zm.331-1.241c.095-.363.253-.707.466-1.016L2.067 7.11a5.203 5.203 0 0 0-.757 1.65l1.935.504zM1.892 7.595c-.03.37-.124.733-.276 1.072l1.825.818a5.294 5.294 0 0 0 .444-1.723l-1.993-.167zm-.334 1.238a3.138 3.138 0 0 1-.463 1.022l1.644 1.138A5.139 5.139 0 0 0 3.5 9.32l-1.94-.487z" fill="#2C3489" mask="url(#C)"/><mask id="D" fill="#fff"><path d="M.294 6.847c.039-.488.161-.966.36-1.413.124-.476.331-.925.612-1.328-.039.488-.16.966-.36 1.413-.123.476-.33.925-.612 1.328z"/></mask><path d="M.294 6.847c.039-.488.161-.966.36-1.413.124-.476.331-.925.612-1.328-.039.488-.16.966-.36 1.413-.123.476-.33.925-.612 1.328z" fill="#fff"/><path d="m.294 6.847-.997-.08-.293 3.659 2.109-3.005-.82-.574zm.36-1.413.914.407.034-.076.02-.08-.967-.251zm.612-1.328.997.079.29-3.672-2.107 3.02.82.573zm-.36 1.413-.913-.409-.035.078-.021.082.968.249zm.385 1.407c.03-.374.123-.741.277-1.085l-1.826-.815a5.309 5.309 0 0 0-.445 1.74l1.994.16zm.332-1.241c.093-.36.25-.702.463-1.007L.446 3.534a5.138 5.138 0 0 0-.76 1.648l1.937.503zM.269 4.027c-.03.374-.123.74-.276 1.083l1.825.818c.247-.552.397-1.141.445-1.743L.269 4.027zM-.063 5.27a3.073 3.073 0 0 1-.462 1.002l1.638 1.149c.35-.5.609-1.061.76-1.654L-.062 5.27z" fill="#2C3489" mask="url(#D)"/><path fill-rule="evenodd" clip-rule="evenodd" d="M107.401 42.568c.002.95.039 1.718-.275 2.407-1.441-2.037-2.987-4.477-4.042-6.617.21-.142.595-.245.77-.205 1.822.034 3.472 1.928 3.547 4.415zM97.44 46.916l.07-.364c.983 1.553 2.564 3.81 3.338 5.505l-.21.142c-.809-1.512-2.108-3.326-3.092-4.879l-.28-.444.174.04z" fill="#2C3489" fill-opacity=".6"/><path fill-rule="evenodd" clip-rule="evenodd" d="m97.58 47.136.069-.364c.983 1.553 2.283 3.367 3.092 4.88l-.21.142a40.076 40.076 0 0 0-2.952-4.658zM112.113 74.835c.037.772.01 4.774-.337 6.603-.313 1.647-1.159 1.264-1.267-.096l-.682-6.071c.738-.023 1.688-.19 2.462-.396l-.176-.04zm-4.102-24.786c2.442 6.47 3.831 13.656 4.056 20.196-1.195.492-2.321.618-3.446.745-1.315-5.642-3.508-10.528-6.474-15.209.422-.286.878-.755 1.335-1.224.247.629.636 1.48.884 2.109 0 0 .211-.143.246-.326l.421-.286c-.389-.852-.636-1.48-1.06-2.149.245-.326.667-.612.913-.938.53 1.074.849 2.292 1.521 3.59.034-.184.421-.287.632-.43-.461-1.44-.956-2.698-1.486-3.772.702-.795 1.58-1.55 2.247-2.163l.211-.143zm4.165 21.556c.072.589-.033 1.138.039 1.727-.984.349-1.758.555-2.849.499-.072-.59-.144-1.178-.25-1.584.95-.166 2.076-.293 3.06-.642zM99.577 37.6c.558-1.013.733-.973 1.155-.308 2.739 3.85 4.601 6.552 6.817 11.233-.034.182-.244.325-.454.467-.21.142-.245.324-.42.285-2.356-4.903-4.289-8.19-7.098-11.677z" fill="#2C3489" fill-opacity=".6"/><path fill-rule="evenodd" clip-rule="evenodd" d="M99.078 38.293c2.813 3.492 4.783 6.603 7.142 11.514-.035.182-.245.325-.455.468-.669-1.294-1.338-2.587-2.182-3.92-.247-.627-.422-.667-.912-.017.985 1.556 1.83 2.889 2.429 4.547-.21.142-.455.467-.665.61-1.056-2.142-2.182-3.92-3.589-6.142-.422-.666-.422-.666-.946.166 1.407 2.222 2.673 4.221 3.87 6.586-.909.935-1.784 1.688-2.38 1.933-.775-1.698-2.745-4.809-4.117-7.213-2.64-4.404-.783-5.504 1.034-8.326.21-.143.245-.325.49-.65l.281.444z" fill="#2C3489" fill-opacity=".6"/><path d="m179.445 33.025-.977-3.61-4.514 1.22-.856-3.164 12.615-3.412.868 3.21-4.514 1.22.964 3.566-3.586.97z" fill="#2C3489" fill-opacity=".2"/><path fill-rule="evenodd" clip-rule="evenodd" d="M173.099 35.172c-.326-1.203 3.037-3.165 7.551-4.386 4.515-1.221 8.408-1.222 8.734-.019.325 1.204-3.038 3.166-7.552 4.387-4.514 1.221-8.408 1.222-8.733.018zm15.61-4.222c-.416-.366-3.237-1.086-7.962.192s-6.811 3.278-6.973 3.848c.416.366 3.043.372 7.769-.906 4.767-1.29 6.991-2.608 7.166-3.134z" fill="#2C3489" fill-opacity=".2"/><path d="m183.333 33.17-.676-2.497c-.602.116-1.247.242-1.88.414-.591.16-1.139.308-1.676.5l.676 2.497c.506-.137 1.109-.253 1.699-.412a13.387 13.387 0 0 0 1.857-.502zM181.832 35.154c-.591.16-1.139.308-1.7.412l1.797 6.64 3.544-.958-1.809-6.686c-.579.205-1.199.42-1.832.592z" fill="#2C3489" fill-opacity=".2"/><path fill-rule="evenodd" clip-rule="evenodd" d="m16.873 5.584.921-1.089c.543.496 1.088.996 1.633 1.49.428-.364 1.088-.514 1.863-.496l2.354 2.82c-.872-.2-1.555-.073-1.89.348a.476.476 0 0 0-.064.453c.041.13.143.288.286.429.114.113.253.226.388.29.15.07.273.072.369.052.199-.038.315-.162.451-.262.332-.226.7-.424 1.176-.5.372-.057.831-.024 1.371.178.5.182 1.05.508 1.57.895.602.446 1.184.957 1.674 1.504.394.437.722.89.96 1.32.498.896.593 1.674.353 2.186.613.495 1.224.984 1.837 1.477l-.872 1.032c-.584-.516-1.164-1.037-1.748-1.551-.255.258-.627.414-1.068.483a5.375 5.375 0 0 1-1.439 0c-.82-.972-1.64-1.945-2.46-2.921.513.116 1.013.199 1.449.197.468-.004.86-.114 1.087-.371.108-.122.202-.263.204-.463 0-.124-.047-.285-.188-.459a1.625 1.625 0 0 0-.575-.452.743.743 0 0 0-.35-.056.814.814 0 0 0-.32.113c-.341.193-.665.402-1.095.504a2.612 2.612 0 0 1-1.246-.018 4.275 4.275 0 0 1-1.005-.395c-.526-.28-1.06-.67-1.552-1.09-.552-.467-1.071-.991-1.454-1.521a4.376 4.376 0 0 1-.684-1.337 3.667 3.667 0 0 1-.134-1.32l-1.802-1.47z" fill="#2C3489" fill-opacity=".2"/></svg>