<svg width="207" height="168" fill="none" xmlns="http://www.w3.org/2000/svg"><path d="M195.127 130.242c5.1 14.67-2.659 30.698-17.33 35.799-14.67 5.1-30.698-2.659-35.799-17.329-5.1-14.671 2.659-30.699 17.329-35.8 14.671-5.1 30.699 2.659 35.8 17.33z" fill="#fff" stroke="#2C3489"/><path d="M186.02 117.1c10.983 10.983 10.983 28.79 0 39.773-10.982 10.983-28.789 10.983-39.772 0-10.983-10.983-10.983-28.79 0-39.773 10.983-10.983 28.79-10.983 39.772 0z" fill="#fff" stroke="#2C3489"/><path d="M185.961 129.557c3.878 10.783-1.938 22.768-13.024 26.755-11.086 3.987-23.203-1.55-27.081-12.332-3.877-10.782 1.939-22.768 13.025-26.754 11.085-3.987 23.202 1.549 27.08 12.331z" fill="#fff" stroke="#2C3489"/><path d="M158.576 116.35a22.294 22.294 0 0 0-10.844 8.377 21.3 21.3 0 0 1 24.472-8.847 22.298 22.298 0 0 0-13.628.47z" fill="#E0E0E0" stroke="#2C3489"/><path d="M152.694 68.176c5.1 14.67-2.658 30.698-17.329 35.799-14.671 5.1-30.699-2.658-35.8-17.33-5.1-14.67 2.659-30.698 17.33-35.798 14.671-5.1 30.699 2.658 35.799 17.329z" fill="#fff" stroke="#2C3489"/><path d="M143.588 55.035c10.983 10.983 10.983 28.79 0 39.772-10.983 10.983-28.79 10.983-39.773 0-10.983-10.983-10.983-28.79 0-39.772 10.983-10.983 28.79-10.983 39.773 0z" fill="#fff" stroke="#2C3489"/><path d="M143.528 67.492c3.878 10.782-1.938 22.767-13.024 26.754-11.085 3.987-23.203-1.55-27.08-12.332-3.878-10.782 1.938-22.767 13.024-26.754 11.086-3.987 23.203 1.55 27.08 12.332z" fill="#fff" stroke="#2C3489"/><path d="M116.703 55.905a22.296 22.296 0 0 0-10.844 8.377 21.3 21.3 0 0 1 24.472-8.847 22.3 22.3 0 0 0-13.628.47zM108.146 13.958c7.64 3.45 11.036 12.439 7.587 20.078-3.449 7.64-12.439 11.036-20.078 7.587-7.64-3.45-11.036-12.438-7.587-20.078 3.45-7.64 12.439-11.036 20.078-7.587z" fill="#E0E0E0" stroke="#2C3489"/><path d="M111.499 14.2c6.459 5.343 7.363 14.91 2.02 21.369-5.343 6.458-14.91 7.363-21.368 2.02-6.459-5.343-7.363-14.91-2.02-21.369 5.343-6.458 14.91-7.363 21.368-2.02z" fill="#fff" stroke="#2C3489"/><path d="M106.003 15.38c5.87 2.376 8.731 8.931 6.425 14.628-2.306 5.697-8.922 8.416-14.792 6.04-5.87-2.377-8.73-8.933-6.424-14.63 2.306-5.696 8.922-8.415 14.791-6.039z" fill="#fff" stroke="#2C3489"/><mask id="a" fill="#fff"><path d="M97.466 36.466a11.934 11.934 0 0 1-6.704-15.231c-.05.105-.095.21-.14.316a11.945 11.945 0 0 0 22.14 8.958c.04-.105.08-.21.115-.32a11.934 11.934 0 0 1-15.411 6.277z"/></mask><path d="M97.466 36.466a11.934 11.934 0 0 1-6.704-15.231c-.05.105-.095.21-.14.316a11.945 11.945 0 0 0 22.14 8.958c.04-.105.08-.21.115-.32a11.934 11.934 0 0 1-15.411 6.277z" fill="#FAFAFA"/><path d="m90.762 21.235.937.35-1.84-.78.903.43zm-.14.316-.92-.394-.008.018-.007.02.934.355zm22.14 8.958.919.394.008-.02.007-.018-.934-.356zm.115-.32.953.302-1.869-.704.916.401zm-15.411 6.277-.376.927.376-.927zm.375-.927a10.934 10.934 0 0 1-5.905-5.73l-1.83.805a12.934 12.934 0 0 0 6.984 6.779l.75-1.854zm-5.905-5.73a10.934 10.934 0 0 1-.237-8.225l-1.874-.698a12.934 12.934 0 0 0 .28 9.728l1.831-.805zm-2.077-9.004c-.06.126-.113.25-.157.352l1.839.787c.046-.107.083-.195.124-.28l-1.806-.86zm-.172.39a12.944 12.944 0 0 0 .23 9.783l1.832-.8a10.945 10.945 0 0 1-.193-8.271l-1.869-.713zm.23 9.783a12.944 12.944 0 0 0 7.01 6.827l.75-1.854a10.945 10.945 0 0 1-5.928-5.773l-1.833.8zm7.01 6.827a12.944 12.944 0 0 0 9.786-.031l-.762-1.85a10.944 10.944 0 0 1-8.274.027l-.75 1.854zm9.786-.031a12.946 12.946 0 0 0 6.968-6.871l-1.838-.788a10.944 10.944 0 0 1-5.892 5.81l.762 1.849zm6.983-6.91c.039-.1.089-.232.134-.373l-1.906-.606c-.025.08-.055.159-.097.268l1.869.712zm-1.735-1.077a10.935 10.935 0 0 1-5.892 5.743l.754 1.852a12.934 12.934 0 0 0 6.97-6.793l-1.832-.802zm-5.892 5.743a10.935 10.935 0 0 1-8.228.01l-.75 1.853a12.935 12.935 0 0 0 9.732-.01l-.754-1.853z" fill="#2C3489" mask="url(#a)"/><mask id="b" fill="#fff"><path d="M106.172 14.962a11.93 11.93 0 0 1 6.704 15.226c.05-.1.095-.205.14-.31a11.942 11.942 0 0 0-15.71-15.3 11.944 11.944 0 0 0-6.43 6.341c-.04.105-.08.21-.115.316a11.934 11.934 0 0 1 15.411-6.273z"/></mask><path d="M106.172 14.962a11.93 11.93 0 0 1 6.704 15.226c.05-.1.095-.205.14-.31a11.942 11.942 0 0 0-15.71-15.3 11.944 11.944 0 0 0-6.43 6.341c-.04.105-.08.21-.115.316a11.934 11.934 0 0 1 15.411-6.273z" fill="#E0E0E0"/><path d="m112.876 30.188-.937-.35 1.831.797-.894-.447zm.14-.31.919.394.008-.02.008-.018-.935-.356zm-22.14-8.959-.92-.393-.007.018-.007.02.934.355zm-.115.316-.949-.316 1.865.717-.916-.401zm15.411-6.273-.375.927.375-.927zm-.375.927a10.929 10.929 0 0 1 5.904 5.728l1.83-.806a12.925 12.925 0 0 0-6.984-6.776l-.75 1.854zm5.904 5.728a10.931 10.931 0 0 1 .238 8.222l1.874.699a12.93 12.93 0 0 0-.282-9.727l-1.83.806zm2.069 9.018c.066-.13.122-.263.165-.363l-1.838-.788a5.48 5.48 0 0 1-.115.257l1.788.895zm.181-.401a12.951 12.951 0 0 0-.229-9.784l-1.834.8a10.944 10.944 0 0 1 .194 8.271l1.869.713zm-.229-9.784a12.947 12.947 0 0 0-7.011-6.827l-.751 1.854a10.941 10.941 0 0 1 5.928 5.773l1.834-.8zm-7.011-6.827a12.946 12.946 0 0 0-9.786.031l.761 1.85a10.943 10.943 0 0 1 8.274-.027l.751-1.854zm-9.786.031a12.945 12.945 0 0 0-6.968 6.872l1.838.787a10.944 10.944 0 0 1 5.891-5.81l-.761-1.849zm-6.983 6.91c-.04.101-.087.226-.13.355l1.897.632c.028-.082.06-.167.102-.276l-1.87-.712zm1.735 1.072a10.934 10.934 0 0 1 5.893-5.74l-.754-1.852a12.934 12.934 0 0 0-6.971 6.79l1.832.802zm5.893-5.74a10.935 10.935 0 0 1 8.227-.007l.751-1.854a12.935 12.935 0 0 0-9.732.009l.754 1.852z" fill="#2C3489" mask="url(#b)"/><path d="M49.626 18.982c10.093 10.092 10.093 26.456 0 36.548-10.093 10.093-26.456 10.093-36.549 0-10.092-10.092-10.092-26.456 0-36.548 10.093-10.093 26.456-10.093 36.549 0z" fill="#fff" stroke="#2C3489"/><path opacity=".2" d="M49.626 18.982c10.093 10.092 10.093 26.456 0 36.548-10.093 10.093-26.456 10.093-36.549 0-10.092-10.092-10.092-26.456 0-36.548 10.093-10.093 26.456-10.093 36.549 0z" fill="#fff" stroke="#2C3489"/><mask id="c" fill="#fff"><path d="M37.017 11.53c.364.398.662.85.881 1.343.298.445.52.936.657 1.453a5.011 5.011 0 0 1-.882-1.323 4.861 4.861 0 0 1-.656-1.473z"/></mask><path d="M37.017 11.53c.364.398.662.85.881 1.343.298.445.52.936.657 1.453a5.011 5.011 0 0 1-.882-1.323 4.861 4.861 0 0 1-.656-1.473z" fill="#fff"/><path d="m37.898 12.873-.913.408.035.077.047.07.831-.555zm.657 1.453-.734.68 1.7-.937-.966.257zm-.882-1.323.91-.415-.033-.072-.044-.066-.833.553zm-1.394-.797c.292.318.53.681.706 1.075l1.827-.816a6.014 6.014 0 0 0-1.058-1.61l-1.474 1.351zm.788 1.223c.236.353.412.743.521 1.154l1.933-.514a5.863 5.863 0 0 0-.791-1.752l-1.663 1.112zm2.221.217a4.008 4.008 0 0 1-.705-1.058l-1.82.831a6.011 6.011 0 0 0 1.058 1.587l1.467-1.36zm-.782-1.196a3.86 3.86 0 0 1-.521-1.17l-1.937.5a5.86 5.86 0 0 0 .792 1.776l1.666-1.106z" fill="#2C3489" mask="url(#c)"/><mask id="d" fill="#fff"><path d="M41.335 12.963c.351.373.64.801.852 1.268.284.425.495.896.621 1.392a4.678 4.678 0 0 1-.852-1.267 4.453 4.453 0 0 1-.621-1.393z"/></mask><path d="M41.335 12.963c.351.373.64.801.852 1.268.284.425.495.896.621 1.392a4.678 4.678 0 0 1-.852-1.267 4.453 4.453 0 0 1-.621-1.393z" fill="#fff"/><path d="m42.187 14.23-.91.415.033.074.045.067.832-.556zm.621 1.393-.728.686 2.653 2.816-.956-3.749-.969.247zm-.852-1.267.91-.415-.034-.075-.046-.068-.83.558zm-1.349-.707c.276.293.503.63.67.996l1.82-.83a5.68 5.68 0 0 0-1.034-1.538l-1.456 1.372zm.748 1.137c.222.332.386.698.484 1.084l1.938-.494a5.512 5.512 0 0 0-.76-1.701l-1.662 1.111zm2.18.152a3.678 3.678 0 0 1-.669-.997l-1.82.83a5.68 5.68 0 0 0 1.034 1.538l1.456-1.371zm-.749-1.14a3.453 3.453 0 0 1-.482-1.08l-1.939.49c.154.608.411 1.185.761 1.705l1.66-1.115z" fill="#2C3489" mask="url(#d)"/><mask id="e" fill="#fff"><path d="M45.284 14.912c.355.37.644.799.852 1.268.287.425.5.896.626 1.393a4.429 4.429 0 0 1-.852-1.268 4.544 4.544 0 0 1-.626-1.393z"/></mask><path d="M45.284 14.912c.355.37.644.799.852 1.268.287.425.5.896.626 1.393a4.429 4.429 0 0 1-.852-1.268 4.544 4.544 0 0 1-.626-1.393z" fill="#fff"/><path d="m45.284 14.912.722-.692-2.65-2.761.96 3.704.968-.25zm.852 1.268-.914.406.036.08.05.074.828-.56zm.626 1.393-.721.692 2.631 2.741-.94-3.681-.97.248zm-.852-1.268.914-.406-.035-.08-.048-.072-.83.558zm-1.347-.7c.275.286.498.618.66.981l1.827-.813a5.428 5.428 0 0 0-1.044-1.553l-1.443 1.385zm.745 1.135c.223.33.387.695.485 1.08l1.938-.495a5.457 5.457 0 0 0-.767-1.706l-1.656 1.121zm2.176.14a3.43 3.43 0 0 1-.66-.981l-1.827.812c.255.575.608 1.1 1.044 1.554l1.443-1.385zm-.743-1.133a3.542 3.542 0 0 1-.489-1.086l-1.936.502c.157.606.416 1.18.764 1.7l1.66-1.116z" fill="#2C3489" mask="url(#e)"/><mask id="f" fill="#fff"><path d="M32.443 10.92c.363.39.66.837.882 1.322.297.445.52.936.656 1.453a5.01 5.01 0 0 1-.881-1.323 4.808 4.808 0 0 1-.657-1.453z"/></mask><path d="M32.443 10.92c.363.39.66.837.882 1.322.297.445.52.936.656 1.453a5.01 5.01 0 0 1-.881-1.323 4.808 4.808 0 0 1-.657-1.453z" fill="#fff"/><path d="m33.325 12.242-.91.416.034.073.045.067.831-.556zm.656 1.453-.733.68 1.7-.937-.967.257zm-.881-1.323.91-.415-.035-.074-.045-.068-.83.557zm-1.39-.773c.29.313.528.67.706 1.059l1.819-.832a6.008 6.008 0 0 0-1.058-1.586L31.71 11.6zm.784 1.199c.236.353.412.743.521 1.154l1.933-.514a5.856 5.856 0 0 0-.791-1.751l-1.663 1.11zm2.221.217a4.01 4.01 0 0 1-.706-1.058l-1.819.831a6.011 6.011 0 0 0 1.058 1.587l1.467-1.36zm-.785-1.2a3.81 3.81 0 0 1-.52-1.15l-1.934.51c.165.624.433 1.218.793 1.754l1.661-1.114z" fill="#2C3489" mask="url(#f)"/><mask id="g" fill="#fff"><path d="M28.189 11.104c.363.39.659.837.876 1.323.295.446.517.937.657 1.453a4.84 4.84 0 0 1-.887-1.323 5.012 5.012 0 0 1-.646-1.453z"/></mask><path d="M28.189 11.104c.363.39.659.837.876 1.323.295.446.517.937.657 1.453a4.84 4.84 0 0 1-.887-1.323 5.012 5.012 0 0 1-.646-1.453z" fill="#fff"/><path d="m29.065 12.427-.913.409.034.074.045.069.834-.552zm.657 1.453-.728.686 1.693-.947-.965.261zm-.887-1.323.91-.412-.03-.07-.043-.064-.837.546zm-1.378-.77c.288.308.523.663.695 1.049l1.826-.817a5.84 5.84 0 0 0-1.058-1.596l-1.463 1.363zm.774 1.192c.236.357.413.75.525 1.163l1.93-.523a6.01 6.01 0 0 0-.787-1.743l-1.668 1.103zm2.218.215a3.838 3.838 0 0 1-.703-1.05l-1.822.826a5.842 5.842 0 0 0 1.07 1.596l1.455-1.372zm-.777-1.183a4.01 4.01 0 0 1-.517-1.163l-1.933.513a6.01 6.01 0 0 0 .775 1.743l1.675-1.093z" fill="#2C3489" mask="url(#g)"/><mask id="h" fill="#fff"><path d="M24.01 12.031c.361.382.659.818.882 1.293.295.433.515.912.652 1.418a4.868 4.868 0 0 1-.882-1.288 4.769 4.769 0 0 1-.651-1.423z"/></mask><path d="M24.01 12.031c.361.382.659.818.882 1.293.295.433.515.912.652 1.418a4.868 4.868 0 0 1-.882-1.288 4.769 4.769 0 0 1-.651-1.423z" fill="#fff"/><path d="m24.892 13.324-.904.426.033.071.044.065.827-.562zm.652 1.418-.724.69 1.69-.952-.966.262zm-.882-1.288.905-.425-.033-.07-.043-.065-.829.56zm-1.378-.736c.288.305.525.653.704 1.032l1.81-.852a5.958 5.958 0 0 0-1.06-1.554l-1.454 1.374zm.781 1.168c.232.341.406.719.514 1.117l1.93-.523a5.713 5.713 0 0 0-.79-1.718l-1.654 1.124zm2.203.166a3.87 3.87 0 0 1-.701-1.023l-1.81.85a5.871 5.871 0 0 0 1.063 1.553l1.448-1.38zm-.777-1.158a3.769 3.769 0 0 1-.515-1.124l-1.93.523a5.77 5.77 0 0 0 .787 1.72l1.658-1.119z" fill="#2C3489" mask="url(#h)"/><mask id="i" fill="#fff"><path d="M20.167 13.324c.365.39.663.836.882 1.323.295.446.516.937.656 1.453a4.917 4.917 0 0 1-.887-1.328 5.011 5.011 0 0 1-.651-1.448z"/></mask><path d="M20.167 13.324c.365.39.663.836.882 1.323.295.446.516.937.656 1.453a4.917 4.917 0 0 1-.887-1.328 5.011 5.011 0 0 1-.651-1.448z" fill="#fff"/><path d="m21.049 14.647-.912.41.033.074.045.067.834-.551zm.656 1.453-.73.683 1.695-.945-.965.262zm-.887-1.328.911-.413-.032-.071-.043-.065-.836.55zm-1.38-.764c.289.309.525.664.699 1.05l1.824-.822a5.836 5.836 0 0 0-1.064-1.596l-1.46 1.368zm.777 1.19c.236.357.413.75.525 1.163l1.93-.523a6.012 6.012 0 0 0-.787-1.742l-1.668 1.102zm2.22.219a3.914 3.914 0 0 1-.706-1.058l-1.821.826a5.917 5.917 0 0 0 1.067 1.598l1.46-1.366zm-.781-1.194a4.007 4.007 0 0 1-.521-1.16l-1.931.522a6.01 6.01 0 0 0 .78 1.737l1.672-1.1z" fill="#2C3489" mask="url(#i)"/><mask id="j" fill="#fff"><path d="M16.495 15.423c.366.389.664.836.882 1.323.297.445.519.936.656 1.453a5.111 5.111 0 0 1-.882-1.318 4.924 4.924 0 0 1-.656-1.458z"/></mask><path d="M16.495 15.423c.366.389.664.836.882 1.323.297.445.519.936.656 1.453a5.111 5.111 0 0 1-.882-1.318 4.924 4.924 0 0 1-.656-1.458z" fill="#fff"/><path d="m17.377 16.746-.913.408.035.077.047.07.83-.555zm.656 1.453-.735.678L19 17.942l-.967.257zm-.882-1.318.908-.42-.032-.07-.042-.063-.834.553zm-1.384-.772c.29.307.525.66.697 1.045l1.826-.816a5.765 5.765 0 0 0-1.067-1.6l-1.456 1.371zm.779 1.193c.236.353.412.743.52 1.154L19 17.942a5.861 5.861 0 0 0-.792-1.752l-1.662 1.112zm2.222.219a4.116 4.116 0 0 1-.71-1.06l-1.814.841a6.118 6.118 0 0 0 1.054 1.575l1.47-1.356zm-.783-1.193a3.926 3.926 0 0 1-.523-1.162l-1.933.514c.166.624.432 1.217.79 1.754l1.666-1.106z" fill="#2C3489" mask="url(#j)"/><mask id="k" fill="#fff"><path d="M13.294 18.003c.361.394.659.842.882 1.328.296.444.518.933.656 1.448a5.01 5.01 0 0 1-.882-1.323 4.859 4.859 0 0 1-.656-1.453z"/></mask><path d="M13.294 18.003c.361.394.659.842.882 1.328.296.444.518.933.656 1.448a5.01 5.01 0 0 1-.882-1.323 4.859 4.859 0 0 1-.656-1.453z" fill="#fff"/><path d="m14.176 19.331-.91.417.034.073.045.066.83-.556zm.656 1.448-.733.68 1.7-.938-.967.258zm-.882-1.323.91-.415-.034-.073-.044-.067-.832.555zm-1.393-.776c.291.317.53.677.71 1.068l1.818-.834a6.116 6.116 0 0 0-1.054-1.587l-1.474 1.353zm.788 1.207c.235.352.412.741.521 1.15l1.932-.516a5.866 5.866 0 0 0-.791-1.746l-1.662 1.112zm2.22.212a4.01 4.01 0 0 1-.705-1.058l-1.82.831A6.011 6.011 0 0 0 14.1 21.46l1.467-1.36zm-.783-1.198a3.856 3.856 0 0 1-.521-1.154l-1.934.513c.166.624.433 1.215.792 1.752l1.663-1.111z" fill="#2C3489" mask="url(#k)"/><mask id="l" fill="#fff"><path d="M10.758 20.72c.361.393.659.841.882 1.327.296.443.518.933.656 1.448a5.012 5.012 0 0 1-.882-1.323 4.861 4.861 0 0 1-.656-1.453z"/></mask><path d="M10.758 20.72c.361.393.659.841.882 1.327.296.443.518.933.656 1.448a5.012 5.012 0 0 1-.882-1.323 4.861 4.861 0 0 1-.656-1.453z" fill="#fff"/><path d="m11.64 22.047-.91.417.034.073.044.066.832-.556zm.656 1.448-.734.68 1.7-.939-.966.259zm-.882-1.323.91-.416-.034-.073-.044-.066-.832.555zm-1.393-.777c.29.317.53.678.71 1.069l1.818-.834a6.114 6.114 0 0 0-1.055-1.587l-1.473 1.352zm.787 1.208c.236.352.412.741.522 1.15l1.932-.517a5.867 5.867 0 0 0-.791-1.745l-1.663 1.112zm2.221.212a4.013 4.013 0 0 1-.706-1.059l-1.819.832a6.01 6.01 0 0 0 1.058 1.587l1.467-1.36zm-.784-1.198a3.86 3.86 0 0 1-.52-1.154l-1.934.513c.166.623.433 1.215.792 1.752l1.662-1.111z" fill="#2C3489" mask="url(#l)"/><mask id="m" fill="#fff"><path d="M8.604 24.181c.375.408.686.87.921 1.373.306.462.536.969.682 1.503a5.41 5.41 0 0 1-.912-1.373 5.196 5.196 0 0 1-.691-1.503z"/></mask><path d="M8.604 24.181c.375.408.686.87.921 1.373.306.462.536.969.682 1.503a5.41 5.41 0 0 1-.912-1.373 5.196 5.196 0 0 1-.691-1.503z" fill="#fff"/><path d="m9.525 25.554-.905.424.031.067.04.061.834-.552zm.682 1.503-.74.674 1.705-.937-.965.263zm-.912-1.373.908-.42-.034-.071-.044-.066-.83.557zm-1.427-.825c.307.332.56.71.752 1.12l1.811-.85a6.41 6.41 0 0 0-1.092-1.626l-1.47 1.356zm.824 1.247c.247.373.432.783.55 1.214l1.93-.526a6.192 6.192 0 0 0-.813-1.792l-1.667 1.104zm2.254.277a4.406 4.406 0 0 1-.743-1.119l-1.816.84a6.41 6.41 0 0 0 1.08 1.627l1.479-1.348zm-.82-1.256a4.196 4.196 0 0 1-.559-1.214l-1.927.536c.177.638.456 1.243.825 1.792l1.66-1.114z" fill="#2C3489" mask="url(#m)"/><mask id="n" fill="#fff"><path d="M6.78 27.903c.373.406.68.868.912 1.368.3.464.53.971.682 1.503a5.18 5.18 0 0 1-.912-1.368 5.135 5.135 0 0 1-.682-1.503z"/></mask><path d="M6.78 27.903c.373.406.68.868.912 1.368.3.464.53.971.682 1.503a5.18 5.18 0 0 1-.912-1.368 5.135 5.135 0 0 1-.682-1.503z" fill="#fff"/><path d="m7.692 29.271-.908.42.03.064.039.06.84-.544zm.682 1.503-.734.68 1.696-.953-.962.273zm-.912-1.368.91-.415-.034-.072-.044-.067-.832.554zm-1.418-.826c.303.33.553.704.74 1.11l1.816-.838a6.322 6.322 0 0 0-1.083-1.625L6.044 28.58zm.809 1.235c.246.38.435.796.559 1.232l1.924-.546a6.55 6.55 0 0 0-.805-1.774l-1.678 1.088zm2.254.28a4.18 4.18 0 0 1-.736-1.104l-1.819.831c.274.598.64 1.15 1.088 1.632l1.467-1.36zm-.813-1.242a4.135 4.135 0 0 1-.548-1.21l-1.931.521c.173.64.448 1.245.814 1.796l1.665-1.108z" fill="#2C3489" mask="url(#n)"/><mask id="o" fill="#fff"><path d="M5.553 31.912c.371.4.695.84.967 1.313.352.428.624.917.801 1.443A6.352 6.352 0 0 1 6.32 33.37a4.009 4.009 0 0 1-.766-1.458z"/></mask><path d="M5.553 31.912c.371.4.695.84.967 1.313.352.428.624.917.801 1.443A6.352 6.352 0 0 1 6.32 33.37a4.009 4.009 0 0 1-.766-1.458z" fill="#fff"/><path d="m5.553 31.912.732-.68-1.694.954.962-.274zm.967 1.313-.868.497.042.073.054.066.772-.636zm.801 1.443-.706.708 1.654-1.028-.948.32zM6.32 33.37l.864-.504-.041-.07-.052-.063-.77.637zm-1.499-.777c.32.344.599.722.832 1.13l1.735-.996a8.16 8.16 0 0 0-1.102-1.496L4.82 32.593zm.928 1.267c.275.335.487.717.626 1.127l1.895-.639a5.564 5.564 0 0 0-.977-1.759l-1.544 1.272zm2.28.1a5.351 5.351 0 0 1-.845-1.094l-1.727 1.008c.32.549.71 1.053 1.16 1.502l1.411-1.416zm-.938-1.227a3.008 3.008 0 0 1-.575-1.094l-1.924.547c.19.667.516 1.287.958 1.821l1.54-1.274z" fill="#2C3489" mask="url(#o)"/><mask id="p" fill="#fff"><path d="M5.016 36.36c.407.47.745.997 1.002 1.564.334.516.595 1.076.776 1.663a6.343 6.343 0 0 1-1.002-1.538 6.74 6.74 0 0 1-.776-1.688z"/></mask><path d="M5.016 36.36c.407.47.745.997 1.002 1.564.334.516.595 1.076.776 1.663a6.343 6.343 0 0 1-1.002-1.538 6.74 6.74 0 0 1-.776-1.688z" fill="#fff"/><path d="m6.018 37.924-.911.413.03.068.041.063.84-.544zm.776 1.663-.75.662 1.706-.956-.956.294zM5.792 38.05l.908-.419-.029-.062-.037-.058-.842.54zM4.26 37.016c.345.397.63.842.847 1.32l1.822-.825a7.443 7.443 0 0 0-1.158-1.806l-1.51 1.311zm.918 1.452c.285.438.507.914.66 1.414l1.912-.589a7.663 7.663 0 0 0-.893-1.913l-1.679 1.088zm2.366.458A5.342 5.342 0 0 1 6.7 37.63l-1.816.838c.298.647.69 1.247 1.16 1.78l1.5-1.322zm-.91-1.416a5.737 5.737 0 0 1-.66-1.438l-1.916.577c.206.685.507 1.337.892 1.94l1.684-1.079z" fill="#2C3489" mask="url(#p)"/><mask id="q" fill="#fff"><path d="M5.518 42.358a7.515 7.515 0 0 1 1.087 1.634c.366.546.658 1.14.867 1.763a7.654 7.654 0 0 1-1.093-1.633 7.44 7.44 0 0 1-.861-1.764z"/></mask><path d="M5.518 42.358a7.515 7.515 0 0 1 1.087 1.634c.366.546.658 1.14.867 1.763a7.654 7.654 0 0 1-1.093-1.633 7.44 7.44 0 0 1-.861-1.764z" fill="#fff"/><path d="m6.605 43.992-.898.44.03.06.037.057.83-.557zm.867 1.763-.753.658 1.7-.975-.947.317zm-1.093-1.633.896-.445-.028-.056-.035-.053-.833.554zm-1.614-1.106c.374.43.691.905.942 1.416l1.795-.881a8.516 8.516 0 0 0-1.231-1.85l-1.506 1.315zm1.01 1.533c.316.472.568.984.748 1.523l1.897-.634a8.351 8.351 0 0 0-.985-2.003l-1.66 1.114zm2.45.548a6.655 6.655 0 0 1-.95-1.42l-1.791.89c.33.666.745 1.286 1.235 1.846l1.506-1.316zm-1.013-1.529a6.44 6.44 0 0 1-.746-1.526l-1.897.633a8.44 8.44 0 0 0 .978 2l1.665-1.107z" fill="#2C3489" mask="url(#q)"/><path d="M58.05 32.986c3.855 13.743-4.16 28.009-17.903 31.864-13.743 3.855-28.008-4.16-31.864-17.903-3.855-13.743 4.16-28.009 17.903-31.864 13.743-3.855 28.009 4.16 31.864 17.903z" fill="#fff" stroke="#2C3489"/><path opacity=".2" d="M52.516 38.045c.897 10.485-7.093 19.752-17.874 20.674-10.781.923-20.229-6.852-21.126-17.337-.897-10.485 7.093-19.751 17.874-20.674 10.782-.922 20.229 6.853 21.126 17.337z" fill="#fff" stroke="#2C3489"/><path d="M34.724 59.626a20.541 20.541 0 0 0 9.658-3.38 19.576 19.576 0 0 1-9.655 3.538 19.563 19.563 0 0 1-10.15-1.862 20.54 20.54 0 0 0 10.147 1.704z" fill="#FAFAFA" stroke="#2C3489"/><path opacity=".3" d="M22.007 22.939a19.562 19.562 0 0 1 19.056-1.613 20.54 20.54 0 0 0-9.745-1.535 20.54 20.54 0 0 0-9.311 3.148z" fill="#fff" stroke="#2C3489"/><path d="M124.007 136.282c16.837 16.837 16.837 44.135 0 60.972-16.837 16.838-44.136 16.838-60.973 0-16.837-16.837-16.837-44.135 0-60.972 16.837-16.837 44.136-16.837 60.973 0z" fill="#fff" stroke="#2C3489"/><path opacity=".4" d="M124.007 136.282c16.837 16.837 16.837 44.135 0 60.972-16.837 16.838-44.136 16.838-60.973 0-16.837-16.837-16.837-44.135 0-60.972 16.837-16.837 44.136-16.837 60.973 0z" fill="#fff" stroke="#2C3489"/><path d="M121.353 131.697c16.837 16.837 16.837 44.135 0 60.972-16.837 16.838-44.136 16.838-60.973 0-16.837-16.837-16.837-44.135 0-60.972 16.837-16.837 44.136-16.837 60.973 0z" fill="#fff" stroke="#2C3489"/><path opacity=".2" d="M123.205 158.588c1.703 17.527-11.489 33.173-29.494 34.922-18.005 1.75-33.962-11.064-35.665-28.591-1.703-17.527 11.488-33.173 29.494-34.922 18.005-1.75 33.962 11.064 35.665 28.591z" fill="#fff" stroke="#2C3489"/><path d="M93.802 194.366a33.712 33.712 0 0 1-29.65-12.58 32.723 32.723 0 0 0 56.323-5.459 33.713 33.713 0 0 1-26.673 18.039zm0 0-.048-.498m.048.498-.048-.498m.048.498-.048-.498m.048.498-.048-.498" fill="#FAFAFA" stroke="#2C3489"/><path opacity=".3" d="M87.457 129.114a33.712 33.712 0 0 0-26.71 18.117 32.73 32.73 0 0 1 26.618-19.013 32.723 32.723 0 0 1 29.735 13.467 33.718 33.718 0 0 0-29.643-12.571zm23.996 7.614a33.22 33.22 0 0 1 10.02 13.409l-63.369 6.255a33.21 33.21 0 0 1 53.349-19.664z" fill="#fff" stroke="#2C3489"/><path d="M60.58 130.348a43.861 43.861 0 0 1 18.017-10.391 43.922 43.922 0 0 1 6.714-1.403 42.129 42.129 0 0 1 6.603-.336l-31.334 12.13zm37.647-11.513a43.432 43.432 0 0 1 19.821 8.838l-19.82-8.838z" fill="#FAFAFA" stroke="#2C3489"/><mask id="r" fill="#fff"><path d="M137.643 168.651a19.536 19.536 0 0 1-1.698-2.71 19.137 19.137 0 0 1-1.468-2.841 40 40 0 0 1 3.166 5.551z"/></mask><path d="M137.643 168.651a19.536 19.536 0 0 1-1.698-2.71 19.137 19.137 0 0 1-1.468-2.841 40 40 0 0 1 3.166 5.551z" fill="#fff"/><path d="m135.945 165.941.888-.46-.019-.036-.022-.035-.847.531zm-1.468-2.841.826-.563-1.75.947.924-.384zm3.967 4.953a18.598 18.598 0 0 1-1.611-2.572l-1.776.92c.516.997 1.113 1.95 1.785 2.849l1.602-1.197zm-1.652-2.643a18.307 18.307 0 0 1-1.392-2.694l-1.847.768a20.35 20.35 0 0 0 1.544 2.988l1.695-1.062zm-3.142-1.747a38.963 38.963 0 0 1 3.088 5.413l1.811-.849a41.062 41.062 0 0 0-3.246-5.69l-1.653 1.126z" fill="#2C3489" mask="url(#r)"/><mask id="s" fill="#fff"><path d="M136.66 158.616a19.913 19.913 0 0 1-1.693-2.71 20.062 20.062 0 0 1-1.473-2.836 19.206 19.206 0 0 1 1.699 2.71 20.132 20.132 0 0 1 1.467 2.836z"/></mask><path d="M136.66 158.616a19.913 19.913 0 0 1-1.693-2.71 20.062 20.062 0 0 1-1.473-2.836 19.206 19.206 0 0 1 1.699 2.71 20.132 20.132 0 0 1 1.467 2.836z" fill="#fff"/><path d="m134.967 155.906.888-.46-.019-.036-.021-.035-.848.531zm-1.473-2.836.8-.6-1.721.989.921-.389zm1.699 2.71-.889.459.018.036.022.034.849-.529zm2.27 2.24a18.913 18.913 0 0 1-1.608-2.574l-1.776.919c.515.996 1.11 1.948 1.779 2.848l1.605-1.193zm-1.648-2.645a19.058 19.058 0 0 1-1.4-2.694l-1.842.778a21 21 0 0 0 1.546 2.977l1.696-1.061zm-3.121-1.705c.607.81 1.146 1.669 1.61 2.569l1.777-.917a20.137 20.137 0 0 0-1.787-2.852l-1.6 1.2zm1.65 2.639c.536.86 1.002 1.761 1.395 2.695l1.843-.775a20.982 20.982 0 0 0-1.541-2.978l-1.697 1.058z" fill="#2C3489" mask="url(#s)"/><path d="m15.034 108.861.017.009.017.007.2-.458-.2.458.003.002.011.005.047.02.184.083a59.053 59.053 0 0 1 3.139 1.561c1.992 1.064 4.56 2.576 6.887 4.374 2.337 1.806 4.383 3.862 5.39 6.003.5 1.063.738 2.131.642 3.196-.095 1.061-.525 2.153-1.418 3.264-3.064 3.815-7.754 4.68-12.684 4.125-4.925-.554-9.976-2.518-13.59-4.213a59.282 59.282 0 0 1-11.606-7.449c-2.855-2.385-5.44-5.349-6.723-8.434-1.265-3.042-1.258-6.171.978-9.045l.01-.007c.043-.029.114-.074.216-.13.202-.111.527-.266.991-.419.928-.307 2.421-.612 4.623-.554 4.407.116 11.652 1.687 22.866 7.602z" fill="#fff" stroke="#2C3489"/><path opacity=".4" d="m15.034 108.861.017.009.017.007.2-.458-.2.458.003.002.011.005.047.02.184.083a59.053 59.053 0 0 1 3.139 1.561c1.992 1.064 4.56 2.576 6.887 4.374 2.337 1.806 4.383 3.862 5.39 6.003.5 1.063.738 2.131.642 3.196-.095 1.061-.525 2.153-1.418 3.264-3.064 3.815-7.754 4.68-12.684 4.125-4.925-.554-9.976-2.518-13.59-4.213a59.282 59.282 0 0 1-11.606-7.449c-2.855-2.385-5.44-5.349-6.723-8.434-1.265-3.042-1.258-6.171.978-9.045l.01-.007c.043-.029.114-.074.216-.13.202-.111.527-.266.991-.419.928-.307 2.421-.612 4.623-.554 4.407.116 11.652 1.687 22.866 7.602z" fill="#fff" stroke="#2C3489"/><path d="M-6.664 99.445c4.675-.569 12.187.294 23.374 6.2l.008.005.046.026.18.105a63.779 63.779 0 0 1 3.05 1.943c1.927 1.307 4.403 3.135 6.613 5.226 2.22 2.1 4.126 4.423 4.976 6.715.422 1.139.576 2.252.394 3.321-.182 1.065-.703 2.121-1.692 3.142-2.704 2.787-7.04 3.188-11.744 2.393-4.68-.791-9.565-2.741-13.182-4.437-3.796-1.781-9.072-4.755-12.255-7.445l-.003-.003c-2.877-2.39-5.332-5.076-6.608-7.679-1.265-2.579-1.341-4.991.355-7.014l.003-.003c.011-.011.03-.03.058-.055.055-.049.142-.125.263-.218a8.18 8.18 0 0 1 1.14-.73c1.046-.563 2.685-1.207 5.024-1.492z" fill="#fff" stroke="#2C3489"/><path opacity=".2" d="M12.271 107.48c4.875 2.575 8.861 5.667 11.368 8.567 1.255 1.452 2.122 2.835 2.556 4.063.434 1.227.42 2.248 0 3.043-.42.794-1.255 1.381-2.513 1.715-1.259.334-2.89.398-4.796.18-3.81-.436-8.61-1.984-13.485-4.559-4.875-2.574-8.86-5.666-11.368-8.567-1.255-1.451-2.122-2.834-2.556-4.062-.433-1.227-.42-2.249 0-3.043s1.255-1.382 2.513-1.715c1.259-.334 2.89-.398 4.796-.18 3.81.435 8.61 1.984 13.485 4.558z" fill="#fff" stroke="#2C3489"/><mask id="t" fill="#fff"><path d="M-12.52 100.863s.15-.135.502-.326c.165-.095.365-.21.616-.325.25-.116.536-.26.871-.391a18.897 18.897 0 0 1 5.913-1.348c1.402-.098 2.81-.08 4.208.055 1.602.167 3.189.458 4.745.872 3.519 1 6.934 2.332 10.2 3.978 7.085 3.342 12.637 8.057 15.633 12.245 1.503 2.104 2.24 4.144 2.355 5.592 0 .18.035.345.05.501v.446c.005.235-.013.47-.055.701-.007.193-.05.383-.126.561-.08 0 .066-.796-.165-2.179a12.525 12.525 0 0 0-2.505-5.306c-3.036-4.008-8.518-8.578-15.532-11.864a60.407 60.407 0 0 0-10.1-4.009 31.93 31.93 0 0 0-4.585-.892 26.445 26.445 0 0 0-4.103-.15 21.118 21.118 0 0 0-5.842 1.077c-1.353.451-2.055.827-2.08.762z"/></mask><path d="M-12.52 100.863s.15-.135.502-.326c.165-.095.365-.21.616-.325.25-.116.536-.26.871-.391a18.897 18.897 0 0 1 5.913-1.348c1.402-.098 2.81-.08 4.208.055 1.602.167 3.189.458 4.745.872 3.519 1 6.934 2.332 10.2 3.978 7.085 3.342 12.637 8.057 15.633 12.245 1.503 2.104 2.24 4.144 2.355 5.592 0 .18.035.345.05.501v.446c.005.235-.013.47-.055.701-.007.193-.05.383-.126.561-.08 0 .066-.796-.165-2.179a12.525 12.525 0 0 0-2.505-5.306c-3.036-4.008-8.518-8.578-15.532-11.864a60.407 60.407 0 0 0-10.1-4.009 31.93 31.93 0 0 0-4.585-.892 26.445 26.445 0 0 0-4.103-.15 21.118 21.118 0 0 0-5.842 1.077c-1.353.451-2.055.827-2.08.762z" fill="#FAFAFA"/><path d="m-12.52 100.863-.668-.743-.512.46.247.642.933-.359zm.502-.326.477.879.01-.006.011-.006-.498-.867zm1.488-.716.361.932.007-.003.007-.002-.376-.927zm5.912-1.348.063.998h.006l-.07-.998zm4.208.055.104-.995h-.008l-.096.995zm4.745.872.273-.962-.008-.002-.008-.002-.257.966zm10.2 3.978-.45.893.012.006.012.006.427-.905zm15.633 12.245.814-.581v-.001l-.814.582zm2.355 5.592h1v-.04l-.004-.04-.996.08zm.05.501h1v-.049l-.005-.048-.995.097zm0 .446h-1v.023l1-.023zm-.055.701-.984-.179-.013.071-.003.072 1 .036zm-.126.561v1h.66l.26-.607-.92-.393zm-.165-2.179.986-.165-.003-.019-.004-.02-.979.204zm-2.505-5.306-.797.604.009.011.009.012.779-.627zM14.19 104.075l-.45.892.012.007.014.006.424-.905zm-10.1-4.009.283-.959-.01-.003-.011-.003-.263.965zm-4.585-.892.119-.992h-.005l-.114.992zm-4.103-.15.04.999-.04-.999zm-5.842 1.077.316.949h.002l-.318-.949zm-2.08.762.67.744h-.001l-.002.002-.002.002a.049.049 0 0 0-.005.003l-.005.005c-.003.002-.003.002 0 .001a2.901 2.901 0 0 1 .325-.204l-.956-1.757a4.79 4.79 0 0 0-.62.399 6.154 6.154 0 0 0-.044.036l-.016.015-.007.005-.003.003-.001.001v.001h-.001l.668.744zm1 .541c.165-.095.33-.189.536-.284l-.836-1.817c-.296.136-.531.272-.697.368l.997 1.733zm.536-.284c.294-.135.517-.251.815-.367l-.723-1.864c-.374.145-.721.319-.928.414l.836 1.817zm.83-.372a17.874 17.874 0 0 1 5.599-1.277l-.126-1.996a19.9 19.9 0 0 0-6.225 1.42l.751 1.853zm5.605-1.277a24.388 24.388 0 0 1 4.043.053l.192-1.991a26.404 26.404 0 0 0-4.374-.058l.14 1.996zm4.036.052c1.55.16 3.085.443 4.59.843l.515-1.932a31.853 31.853 0 0 0-4.898-.9l-.207 1.989zm4.575.839a56.66 56.66 0 0 1 10.024 3.909l.9-1.786a58.692 58.692 0 0 0-10.378-4.047l-.546 1.924zm10.047 3.921c6.957 3.281 12.364 7.894 15.245 11.922l1.627-1.164c-3.11-4.349-8.806-9.165-16.019-12.567l-.853 1.809zm15.245 11.921c1.428 1.999 2.075 3.868 2.172 5.09l1.993-.159c-.133-1.674-.959-3.883-2.537-6.093l-1.628 1.162zm2.169 5.011c0 .152.015.288.027.386.016.123.022.152.027.211l1.991-.193a4.401 4.401 0 0 0-.018-.155l-.016-.116a1.102 1.102 0 0 1-.011-.133h-2zm.05.501v.446h2v-.446h-2zm0 .469c.004.167-.01.334-.04.499l1.968.358c.055-.298.079-.601.071-.904l-1.999.047zm-.055.642a.575.575 0 0 1-.045.205l1.84.785c.123-.291.193-.602.204-.918l-1.999-.072zm.874-.403c.509 0 .777.351.864.509.079.143.098.267.102.287.01.061.008.095.007.045v-.158c.001-.072.002-.16.001-.261a11.019 11.019 0 0 0-.153-1.766l-1.972.329c.104.625.123 1.115.125 1.451 0 .099-.002.375 0 .431 0 .046.001.154.02.263.007.045.032.188.118.343.093.17.37.527.888.527v-2zm.814-1.383a13.525 13.525 0 0 0-2.705-5.729l-1.558 1.254a11.525 11.525 0 0 1 2.305 4.882l1.958-.407zm-2.687-5.706c-3.147-4.155-8.765-8.82-15.905-12.166l-.848 1.811c6.889 3.228 12.234 7.701 15.159 11.563l1.594-1.208zm-15.878-12.153a61.449 61.449 0 0 0-10.268-4.075l-.567 1.918a59.487 59.487 0 0 1 9.933 3.942l.902-1.785zm-10.29-4.08a32.88 32.88 0 0 0-4.727-.92l-.237 1.985a30.9 30.9 0 0 1 4.44.864l.525-1.93zm-4.732-.92a27.426 27.426 0 0 0-4.258-.157l.082 1.998a25.538 25.538 0 0 1 3.948.145l.228-1.987zm-4.258-.157a22.103 22.103 0 0 0-6.12 1.128l.637 1.897a20.096 20.096 0 0 1 5.565-1.027l-.082-1.998zm-6.118 1.128c-.707.235-1.244.452-1.6.597-.188.077-.294.121-.361.146-.041.015-.015.003.04-.008.018-.004.128-.028.275-.013.124.013.614.101.817.629l-1.867.718c.206.536.704.628.842.643.16.016.29-.009.332-.018.104-.021.2-.055.249-.073.113-.042.272-.108.43-.173.34-.139.83-.336 1.476-.551l-.633-1.897z" fill="#2C3489" mask="url(#t)"/><path opacity=".4" d="M12.945 106.253c5.618 3.05 8.962 5.929 10.934 8.386-2.1-2.39-5.424-5.096-10.663-7.85-6.219-3.262-10.834-4.583-14.22-4.903 3.276.004 7.818 1.038 13.949 4.367z" fill="#fff" stroke="#2C3489"/><mask id="u" fill="#fff"><path d="M22.552 131.966c-.1 0 .055-.636.316-1.352a3.7 3.7 0 0 1 .606-1.258 4.06 4.06 0 0 1-.36 1.348 5.564 5.564 0 0 1-.562 1.262z"/></mask><path d="M22.552 131.966c-.1 0 .055-.636.316-1.352a3.7 3.7 0 0 1 .606-1.258 4.06 4.06 0 0 1-.36 1.348 5.564 5.564 0 0 1-.562 1.262z" fill="#fff"/><path d="m22.868 130.614.94.341.015-.042.011-.043-.966-.256zm.606-1.258.996.089.314-3.528-2.112 2.842.802.597zm-.36 1.348-.908-.421-.03.064-.02.067.957.29zm-.562.262c.299 0 .56.135.731.328a.948.948 0 0 1 .238.565v.061c-.001.014.001-.022.027-.131.047-.2.138-.499.26-.834l-1.88-.683c-.139.382-.256.759-.326 1.056-.033.14-.067.307-.077.464-.004.063-.012.219.033.395a1.02 1.02 0 0 0 .994.779v-2zm1.282-.096c.088-.331.238-.643.443-.918l-1.605-1.193a4.704 4.704 0 0 0-.77 1.598l1.932.513zm-1.356-1.603a3.058 3.058 0 0 1-.272 1.016l1.814.841a5.05 5.05 0 0 0 .45-1.679l-1.992-.178zm-.322 1.147c-.11.363-.264.711-.46 1.036l1.712 1.033c.282-.467.505-.968.663-1.49l-1.915-.579z" fill="#2C3489" mask="url(#u)"/><mask id="v" fill="#fff"><path d="M26.725 130.684c-.1 0 0-.526.226-1.097.225-.571.446-1.027.5-1.002a2.58 2.58 0 0 1-.27 1.092c-.099.357-.253.697-.456 1.007z"/></mask><path d="M26.725 130.684c-.1 0 0-.526.226-1.097.225-.571.446-1.027.5-1.002a2.58 2.58 0 0 1-.27 1.092c-.099.357-.253.697-.456 1.007z" fill="#fff"/><path d="M26.725 130.684v1h.541l.296-.452-.837-.548zm.727-2.099 1 .023.015-.66-.601-.273-.414.91zm-.27 1.092-.896-.446-.043.086-.025.093.963.267zm-.457.007a.973.973 0 0 1 .896.594c.065.158.065.283.065.295.001.051-.005.051.01-.026a3.75 3.75 0 0 1 .185-.593l-1.86-.734c-.13.329-.23.661-.286.933a2.175 2.175 0 0 0-.048.46c.001.07.008.242.086.43.086.207.37.641.952.641v-2zm1.156.27c.107-.271.207-.5.28-.648.04-.08.058-.108.054-.103a.776.776 0 0 1-.102.119.984.984 0 0 1-1.075.173l.828-1.82a1.014 1.014 0 0 0-1.132.198c-.094.09-.157.182-.185.225a2.92 2.92 0 0 0-.18.321c-.107.216-.23.501-.348.801l1.86.734zm-1.429-1.392a1.58 1.58 0 0 1-.166.669l1.79.893c.235-.472.363-.989.376-1.516l-2-.046zm-.234.848a2.593 2.593 0 0 1-.33.727l1.674 1.095c.26-.397.456-.831.583-1.287l-1.927-.535z" fill="#2C3489" mask="url(#v)"/><mask id="w" fill="#fff"><path d="M18.874 132.117a4.645 4.645 0 0 1 .386-1.503c.13-.498.343-.971.631-1.398a4.681 4.681 0 0 1-.386 1.503 4.5 4.5 0 0 1-.631 1.398z"/></mask><path d="M18.874 132.117a4.645 4.645 0 0 1 .386-1.503c.13-.498.343-.971.631-1.398a4.681 4.681 0 0 1-.386 1.503 4.5 4.5 0 0 1-.631 1.398z" fill="#fff"/><path d="m19.26 130.614.913.407.034-.075.02-.079-.967-.253zm.631-1.398.997.085.326-3.84-2.152 3.197.83.558zm-.386 1.503-.914-.405-.033.075-.02.08.967.25zm.366 1.482a3.64 3.64 0 0 1 .302-1.18l-1.827-.814a5.647 5.647 0 0 0-.468 1.827l1.992.167zm.356-1.334c.102-.389.269-.758.494-1.092l-1.66-1.117c-.35.52-.61 1.096-.769 1.703l1.935.506zm-1.332-1.735a3.69 3.69 0 0 1-.304 1.182l1.828.811a5.688 5.688 0 0 0 .468-1.824l-1.992-.169zm-.358 1.337a3.51 3.51 0 0 1-.491 1.088l1.656 1.121a5.51 5.51 0 0 0 .771-1.708l-1.936-.501z" fill="#2C3489" mask="url(#w)"/><mask id="x" fill="#fff"><path d="M15.292 131.721a5.144 5.144 0 0 1 .42-1.584 5.09 5.09 0 0 1 .667-1.503 10.247 10.247 0 0 1-1.087 3.077v.01z"/></mask><path d="M15.292 131.721a5.144 5.144 0 0 1 .42-1.584 5.09 5.09 0 0 1 .667-1.503 10.247 10.247 0 0 1-1.087 3.077v.01z" fill="#fff"/><path d="M15.292 131.721h-1l1.995.099-.995-.099zm.42-1.584.914.408.034-.075.02-.08-.967-.253zm.667-1.503.984.179-1.82-.726.836.547zm-1.087 3.077-.878-.48-.122.224v.256h1zm.995.109a4.14 4.14 0 0 1 .339-1.275l-1.826-.815a6.137 6.137 0 0 0-.503 1.891l1.99.199zm.393-1.43c.112-.429.293-.837.536-1.208l-1.674-1.095a6.077 6.077 0 0 0-.797 1.798l1.935.505zm-1.285-1.934a9.244 9.244 0 0 1-.98 2.775l1.755.959a11.248 11.248 0 0 0 1.193-3.377l-1.968-.357zm-1.103 3.255v.01h2v-.01h-2z" fill="#2C3489" mask="url(#x)"/><mask id="y" fill="#fff"><path d="M11.395 130.663a5.148 5.148 0 0 1 .42-1.583c.142-.533.367-1.04.667-1.503a5.27 5.27 0 0 1-.421 1.583 5.147 5.147 0 0 1-.666 1.503z"/></mask><path d="M11.395 130.663a5.148 5.148 0 0 1 .42-1.583c.142-.533.367-1.04.667-1.503a5.27 5.27 0 0 1-.421 1.583 5.147 5.147 0 0 1-.666 1.503z" fill="#fff"/><path d="m11.815 129.08.914.408.032-.073.02-.078-.966-.257zm.667-1.503.994.104-1.834-.648.84.544zm-.421 1.583-.915-.403-.032.072-.02.077.967.254zm.329 1.603c.044-.44.158-.871.338-1.275l-1.826-.815a6.137 6.137 0 0 0-.502 1.891l1.99.199zm.392-1.426c.114-.431.296-.842.539-1.216l-1.678-1.088a6.25 6.25 0 0 0-.794 1.791l1.933.513zm-1.295-1.864a4.289 4.289 0 0 1-.341 1.284l1.83.807a6.278 6.278 0 0 0 .5-1.883l-1.989-.208zm-.393 1.433c-.113.43-.295.839-.537 1.212l1.675 1.091c.36-.551.629-1.157.796-1.794l-1.934-.509z" fill="#2C3489" mask="url(#y)"/><mask id="z" fill="#fff"><path d="M7.792 129.381a5.139 5.139 0 0 1 .42-1.583c.142-.533.367-1.04.667-1.503a5.278 5.278 0 0 1-.42 1.583 5.147 5.147 0 0 1-.667 1.503z"/></mask><path d="M7.792 129.381a5.139 5.139 0 0 1 .42-1.583c.142-.533.367-1.04.667-1.503a5.278 5.278 0 0 1-.42 1.583 5.147 5.147 0 0 1-.667 1.503z" fill="#fff"/><path d="m8.213 127.798.913.408.033-.074.02-.077-.966-.257zm.666-1.503.995.104-1.834-.648.84.544zm-.42 1.583-.916-.404-.032.073-.02.077.967.254zm.328 1.603c.044-.441.159-.871.339-1.275L7.3 127.39a6.143 6.143 0 0 0-.503 1.892l1.99.199zm.392-1.426c.115-.431.297-.842.54-1.216l-1.679-1.088a6.23 6.23 0 0 0-.794 1.79l1.933.514zm-1.294-1.864a4.274 4.274 0 0 1-.342 1.283l1.83.808a6.281 6.281 0 0 0 .5-1.883l-1.988-.208zm-.394 1.433c-.113.43-.294.839-.537 1.211l1.676 1.092c.36-.552.628-1.158.795-1.795l-1.934-.508z" fill="#2C3489" mask="url(#z)"/><mask id="A" fill="#fff"><path d="M4.19 128.109a5.132 5.132 0 0 1 .42-1.583 5.243 5.243 0 0 1 .667-1.504 10.345 10.345 0 0 1-1.088 3.087z"/></mask><path d="M4.19 128.109a5.132 5.132 0 0 1 .42-1.583 5.243 5.243 0 0 1 .667-1.504 10.345 10.345 0 0 1-1.088 3.087z" fill="#fff"/><path d="m4.19 128.109-.996-.1 1.874.577-.879-.477zm.42-1.583.913.407.033-.073.02-.078-.966-.256zm.667-1.504.984.179-1.824-.722.84.543zm-.093 3.186a4.14 4.14 0 0 1 .34-1.275l-1.827-.815a6.137 6.137 0 0 0-.503 1.891l1.99.199zm.393-1.426c.114-.431.296-.841.539-1.216l-1.679-1.087a6.23 6.23 0 0 0-.793 1.79l1.933.513zm-1.284-1.938a9.335 9.335 0 0 1-.982 2.787l1.757.955c.575-1.058.977-2.2 1.193-3.385l-1.968-.357z" fill="#2C3489" mask="url(#A)"/><mask id="B" fill="#fff"><path d="M.808 126.195c.054-.546.194-1.08.415-1.583.143-.533.368-1.04.667-1.503a5.207 5.207 0 0 1-.416 1.583 5.305 5.305 0 0 1-.666 1.503z"/></mask><path d="M.808 126.195c.054-.546.194-1.08.415-1.583.143-.533.368-1.04.667-1.503a5.207 5.207 0 0 1-.416 1.583 5.305 5.305 0 0 1-.666 1.503z" fill="#fff"/><path d="m1.223 124.612.916.403.03-.07.02-.074-.966-.259zm.667-1.503.995.099-1.836-.641.84.542zm-.416 1.583-.915-.403-.031.07-.02.074.966.259zm.329 1.602c.044-.441.157-.873.336-1.279l-1.83-.806a6.212 6.212 0 0 0-.496 1.887l1.99.198zm.386-1.423c.116-.432.299-.844.541-1.22l-1.68-1.084a6.318 6.318 0 0 0-.792 1.786l1.931.518zM.895 123.01a4.211 4.211 0 0 1-.336 1.279l1.83.806c.264-.599.431-1.236.496-1.887l-1.99-.198zm-.387 1.423a4.315 4.315 0 0 1-.54 1.22l1.68 1.084a6.319 6.319 0 0 0 .792-1.786l-1.932-.518z" fill="#2C3489" mask="url(#B)"/><path fill-rule="evenodd" clip-rule="evenodd" d="M91.401 145.568c.002.95.039 1.719-.275 2.407-1.44-2.036-2.987-4.477-4.042-6.617.21-.142.595-.245.77-.205 1.822.033 3.472 1.928 3.547 4.415zM81.44 149.916l.07-.364c.983 1.553 2.564 3.81 3.338 5.505l-.21.142c-.809-1.512-2.108-3.326-3.092-4.879l-.28-.443.174.039z" fill="#2C3489" fill-opacity=".6"/><path fill-rule="evenodd" clip-rule="evenodd" d="m81.58 150.136.069-.364c.983 1.553 2.283 3.367 3.091 4.88l-.21.142a40.062 40.062 0 0 0-2.95-4.658zM96.113 177.835c.037.772.01 4.774-.337 6.603-.313 1.647-1.159 1.264-1.267-.096l-.683-6.071c.74-.023 1.69-.19 2.463-.396l-.176-.04zm-4.102-24.786c2.442 6.47 3.83 13.656 4.056 20.196-1.195.492-2.32.618-3.446.745-1.315-5.642-3.508-10.528-6.474-15.209.422-.286.878-.755 1.335-1.224.247.629.636 1.48.884 2.109 0 0 .21-.143.246-.326l.421-.286c-.389-.852-.636-1.48-1.06-2.149.245-.326.667-.612.913-.938.53 1.074.85 2.292 1.52 3.589.035-.183.422-.286.633-.429-.46-1.44-.956-2.698-1.486-3.772.702-.795 1.58-1.55 2.247-2.163l.21-.143zm4.165 21.556c.072.589-.033 1.138.04 1.727-.985.349-1.76.555-2.85.499-.072-.589-.144-1.178-.25-1.584.95-.166 2.076-.293 3.06-.642zM83.577 140.6c.558-1.013.733-.973 1.155-.308 2.74 3.851 4.601 6.552 6.817 11.233-.034.182-.244.325-.454.467-.21.142-.245.324-.42.285-2.356-4.903-4.29-8.191-7.098-11.677z" fill="#2C3489" fill-opacity=".6"/><path fill-rule="evenodd" clip-rule="evenodd" d="M83.078 141.293c2.813 3.492 4.783 6.603 7.142 11.514-.035.183-.245.325-.455.468-.669-1.294-1.338-2.587-2.182-3.92-.247-.627-.422-.667-.912-.017.985 1.556 1.83 2.889 2.43 4.547-.21.142-.456.467-.666.61-1.056-2.142-2.182-3.92-3.589-6.142-.422-.666-.422-.666-.946.166 1.407 2.222 2.673 4.221 3.87 6.586-.91.935-1.784 1.687-2.38 1.933-.775-1.698-2.745-4.809-4.117-7.213-2.64-4.404-.783-5.504 1.034-8.326.21-.143.245-.325.49-.65l.281.444z" fill="#2C3489" fill-opacity=".6"/><path fill-rule="evenodd" clip-rule="evenodd" d="M102.488 19.502c0 .374.015.676-.109.946-.566-.8-1.174-1.76-1.589-2.6.083-.057.234-.097.303-.081.716.013 1.365.757 1.395 1.735zM98.572 21.21l.027-.142c.386.61 1.008 1.497 1.312 2.164l-.083.056c-.317-.595-.828-1.308-1.215-1.919l-.11-.174.069.016z" fill="#2C3489" fill-opacity=".2"/><path fill-rule="evenodd" clip-rule="evenodd" d="m98.627 21.297.027-.143c.387.61.898 1.324 1.215 1.918l-.082.056a15.732 15.732 0 0 0-1.16-1.83zM104.339 32.186c.015.303.004 1.876-.132 2.595-.123.647-.456.497-.498-.038l-.268-2.386c.29-.01.663-.075.968-.156l-.07-.015zm-1.612-9.743a25.558 25.558 0 0 1 1.594 7.938c-.469.194-.912.243-1.354.293-.517-2.218-1.379-4.139-2.545-5.978.166-.113.345-.297.524-.482.098.248.251.582.348.83 0 0 .083-.057.097-.129l.165-.112c-.152-.335-.25-.582-.416-.845.096-.128.262-.24.358-.368.209.422.334.9.598 1.41.014-.072.166-.112.249-.168a10.852 10.852 0 0 0-.584-1.483c.276-.313.621-.61.883-.85l.083-.056zm1.637 8.473c.028.231-.013.447.016.678-.387.138-.692.219-1.12.197-.029-.232-.057-.463-.099-.623.374-.065.816-.115 1.203-.252zM99.411 17.549c.22-.398.288-.383.454-.121 1.077 1.513 1.809 2.575 2.68 4.415-.013.072-.096.128-.178.184-.083.056-.097.127-.165.112-.927-1.928-1.687-3.22-2.79-4.59z" fill="#2C3489" fill-opacity=".2"/><path fill-rule="evenodd" clip-rule="evenodd" d="M99.215 17.821c1.106 1.373 1.88 2.596 2.808 4.526-.014.072-.097.128-.179.184-.263-.508-.526-1.017-.858-1.54-.097-.247-.166-.263-.358-.007.387.611.719 1.135.955 1.787-.083.056-.179.184-.262.24-.415-.842-.858-1.541-1.41-2.415-.167-.262-.167-.262-.373.066.553.873 1.051 1.659 1.522 2.588-.358.368-.702.664-.936.76-.304-.667-1.079-1.89-1.618-2.835-1.038-1.731-.308-2.164.406-3.273.083-.056.096-.128.193-.255l.11.174z" fill="#2C3489" fill-opacity=".2"/><path d="M30.612 39.97V36.23h-4.603v-3.28H38.87v3.326h-4.602v3.695h-3.656z" fill="#2C3489" fill-opacity=".6"/><path fill-rule="evenodd" clip-rule="evenodd" d="M24.03 40.386c0-1.247 3.7-2.263 8.302-2.263 4.603 0 8.302 1.016 8.302 2.263 0 1.247-3.7 2.263-8.302 2.263-4.602 0-8.302-1.016-8.302-2.263zm15.916 0c-.301-.462-2.796-1.894-7.614-1.894-4.817 0-7.312 1.386-7.613 1.894.3.462 2.796 1.155 7.613 1.155 4.86 0 7.313-.693 7.614-1.155z" fill="#2C3489" fill-opacity=".6"/><path d="M34.268 41.125v-2.587a24.811 24.811 0 0 0-1.893-.092c-.602 0-1.161 0-1.72.046v2.587c.516 0 1.118.046 1.72.046.645.046 1.29.046 1.893 0zM32.332 42.649c-.602 0-1.161 0-1.72-.046v6.882h3.613v-6.928c-.602.046-1.248.092-1.893.092z" fill="#2C3489" fill-opacity=".6"/><path d="m163.445 136.025-.977-3.61-4.514 1.221-.856-3.165 12.615-3.412.868 3.209-4.514 1.221.964 3.566-3.586.97z" fill="#2C3489" fill-opacity=".2"/><path fill-rule="evenodd" clip-rule="evenodd" d="M157.099 138.172c-.326-1.203 3.037-3.165 7.551-4.386 4.515-1.221 8.408-1.222 8.734-.019.325 1.204-3.038 3.166-7.552 4.387-4.514 1.221-8.408 1.222-8.733.018zm15.61-4.222c-.416-.366-3.237-1.086-7.962.192-4.725 1.279-6.811 3.278-6.973 3.848.416.366 3.043.372 7.769-.906 4.767-1.289 6.991-2.608 7.166-3.134z" fill="#2C3489" fill-opacity=".2"/><path d="m167.333 136.17-.676-2.496a25.69 25.69 0 0 0-1.88.412c-.591.16-1.139.309-1.676.502l.676 2.496c.506-.137 1.109-.253 1.699-.412a13.486 13.486 0 0 0 1.857-.502zM165.832 138.154c-.591.159-1.139.308-1.7.412l1.797 6.641 3.544-.959-1.809-6.686a25.74 25.74 0 0 1-1.832.592z" fill="#2C3489" fill-opacity=".2"/><path fill-rule="evenodd" clip-rule="evenodd" d="M120.913 63.306h4.114c-.08.928-.166 1.862-.242 2.791 1.6.116 3.16.631 4.563 1.393a1450.93 1450.93 0 0 1-1.827 4.574 6.552 6.552 0 0 0-4.286-1.54c-.388.01-.792.086-1.115.308a.986.986 0 0 0-.414.626c-.035.202-.025.429.086.61.126.203.348.324.57.4.454.161.944.171 1.419.221 1.115.137 2.236.329 3.291.727.817.313 1.6.783 2.16 1.47.53.63.838 1.428.954 2.246.136.944.096 1.923-.197 2.841a5.582 5.582 0 0 1-1.12 2.005c-1.045 1.211-2.58 1.938-4.155 2.125.051.994.111 1.983.167 2.978h-3.897c.051-.984.116-1.969.162-2.953a9.591 9.591 0 0 1-3.054-.636 13.63 13.63 0 0 1-2.681-1.388c.616-1.585 1.232-3.17 1.853-4.76.701.59 1.449 1.14 2.266 1.56.879.449 1.853.736 2.842.746.47.005.954-.02 1.398-.181.273-.101.541-.278.662-.555.126-.293.116-.662-.076-.924a1.292 1.292 0 0 0-.53-.384 3.767 3.767 0 0 0-.843-.217c-1.06-.172-2.125-.313-3.15-.646-.823-.268-1.625-.641-2.281-1.217a4.097 4.097 0 0 1-1-1.292c-.363-.737-.5-1.57-.49-2.387 0-.914.187-1.843.641-2.645.394-.717.995-1.303 1.671-1.752.818-.54 1.732-.909 2.661-1.207l-.122-2.937z" fill="#2C3489" fill-opacity=".5"/><path fill-rule="evenodd" clip-rule="evenodd" d="m.873 108.584.921-1.089c.543.496 1.088.996 1.633 1.49.428-.364 1.088-.514 1.863-.496l2.354 2.82c-.872-.2-1.555-.073-1.89.348a.476.476 0 0 0-.064.453c.041.131.144.288.286.429a1.5 1.5 0 0 0 .388.289c.15.07.273.073.369.053.199-.038.315-.162.451-.262.332-.226.7-.424 1.176-.5.372-.057.831-.024 1.371.178.5.182 1.05.508 1.57.895.602.446 1.184.957 1.674 1.504.394.437.722.89.96 1.321.497.895.593 1.673.353 2.185.612.495 1.224.984 1.837 1.477l-.872 1.032c-.584-.516-1.164-1.036-1.748-1.551-.256.258-.627.414-1.068.483a5.357 5.357 0 0 1-1.439.001c-.82-.973-1.64-1.946-2.46-2.922.513.116 1.013.199 1.449.196.468-.003.86-.114 1.087-.37.108-.122.202-.263.204-.463 0-.124-.047-.285-.188-.459a1.622 1.622 0 0 0-.575-.452.739.739 0 0 0-.35-.055.807.807 0 0 0-.32.112c-.341.193-.665.403-1.096.504a2.618 2.618 0 0 1-1.245-.018 4.272 4.272 0 0 1-1.005-.395c-.526-.281-1.06-.67-1.552-1.09-.552-.467-1.071-.991-1.454-1.521a4.389 4.389 0 0 1-.684-1.337 3.67 3.67 0 0 1-.134-1.321l-1.802-1.469z" fill="#2C3489" fill-opacity=".2"/></svg>